<?xml version="1.0" encoding="UTF-8" standalone="no"?>
<!-- Created with Inkscape (http://www.inkscape.org/) -->

<svg
   width="56.453918mm"
   height="68.514511mm"
   viewBox="0 0 56.453918 68.514511"
   version="1.1"
   id="svg1"
   xml:space="preserve"
   xmlns:xlink="http://www.w3.org/1999/xlink"
   xmlns="http://www.w3.org/2000/svg"
   xmlns:svg="http://www.w3.org/2000/svg"><defs
     id="defs1"><linearGradient
       id="linearGradient42"><stop
         style="stop-color:#303030;stop-opacity:1;"
         offset="0"
         id="stop42" /><stop
         style="stop-color:#623030;stop-opacity:1;"
         offset="1"
         id="stop43" /></linearGradient><linearGradient
       xlink:href="#linearGradient42"
       id="linearGradient43-4"
       x1="-682.50964"
       y1="96.781868"
       x2="-637.00793"
       y2="96.781868"
       gradientUnits="userSpaceOnUse" /></defs><g
     id="layer1"
     transform="translate(600.86763,-82.635534)"><g
       id="g42-1-7"
       transform="matrix(1.1359939,0,0,1.1359939,150.33823,-19.531015)"><g
         id="g40-3-0"
         transform="matrix(0.62476073,0.36070578,-0.36070578,0.62476073,-183.88036,281.14603)"><g
           id="g39-8-8"><path
             id="path26-7-9"
             style="fill:url(#linearGradient43-4);stroke-width:4.76742;stroke-linecap:round;stroke-linejoin:round"
             d="m -637.00874,97.047617 c 0.0676,-10.245719 -4.24222,-21.144888 -13.18494,-26.743147 1.71375,10.458691 -4.62379,23.522459 -16.07568,24.589331 -6.28266,1.410206 -11.97482,-6.764847 -14.48498,-7.913586 -2.3767,6.264012 -2.32692,14.012395 0.0706,20.104495 4.76134,-5.75432 15.2003,-11.536474 22.55927,-4.92254 7.09283,4.42955 7.76658,16.44777 8.76475,21.0971 8.45858,-5.72019 12.33509,-16.31839 12.351,-26.211653 z" /><path
             style="fill:#cbcbcb;stroke-width:4.76742;stroke-linecap:round;stroke-linejoin:round"
             d="m -675.61914,101.93555 c -1.85185,0.98621 -3.56797,2.20661 -5.00586,3.54687 0.0583,0.1829 0.12202,0.35936 0.18359,0.53906 1.33024,-1.46987 2.95799,-2.87901 4.82227,-4.08593 z"
             id="path39-6-3" /><path
             style="fill:#cbcbcb;stroke-width:4.76742;stroke-linecap:round;stroke-linejoin:round"
             d="m -680.46484,87.910156 c -0.0314,0.09275 -0.0652,0.183783 -0.0957,0.277344 1.41485,1.280045 3.11816,2.956231 5.04102,4.267578 0.53122,0.362284 1.10017,0.565521 1.65234,0.849609 -0.86058,-0.593897 -1.72916,-1.196772 -2.48437,-1.849609 -1.03495,-0.894655 -1.96447,-1.786836 -2.75977,-2.505859 -0.57173,-0.516902 -0.96039,-0.771999 -1.35351,-1.039063 z"
             id="path38-7-9" /><path
             id="path36-3-7"
             style="fill:#cbcbcb;stroke-width:4.76742;stroke-linecap:round;stroke-linejoin:round"
             d="m -645.59961,75.455078 c 4.83117,6.023293 7.19096,13.968679 7.14063,21.597656 -0.0135,7.708616 -2.35371,15.812716 -7.33008,21.874996 5.31739,-5.76235 7.90043,-13.96154 7.92969,-21.80273 2.2e-4,0.397281 0.001,0.725324 0.004,-0.07813 -10e-6,-0.0035 10e-6,-4.79e-4 0,-0.0039 a 0.2734844,0.2734844 0 0 1 0,-0.002 c 10e-6,-6.48e-4 0,-0.0013 0,-0.002 -0.003,-0.782101 -0.004,-0.47331 -0.004,-0.08398 0.0318,-7.737871 -2.57616,-15.757667 -7.74024,-21.5 z" /><path
             id="rect24-5-5"
             style="fill:#303030;fill-opacity:1;stroke-width:3.96973;stroke-linecap:round;stroke-linejoin:round"
             d="m -667.85543,84.543901 c 6.5872,4.071477 1.59162,14.633692 3.21673,21.462979 0.006,17.06057 0.0814,34.12171 -0.0696,51.18178 -4.72151,7.60163 -8.88634,-4.70015 -6.36705,-9.6043 0.0555,-20.11233 -0.16004,-40.22619 0.11611,-60.337254 0.38986,-1.554523 1.70438,-2.746101 3.1038,-2.703205 z" /><path
             id="path28-7-9"
             style="fill:#f6f6f6;fill-opacity:0.870968;stroke-width:3.96973;stroke-linecap:round;stroke-linejoin:round"
             d="m -669.16972,121.03298 c -0.0203,-0.003 -0.0393,0.0121 -0.0441,0.0353 -0.59441,5.24854 -0.87535,22.22053 -1.05975,28.81014 -0.48805,0.89707 -0.71459,3.03254 -0.28767,4.55226 0.21422,0.76258 0.53281,1.43419 0.93301,1.87588 0.4002,0.44167 0.88649,0.65159 1.41914,0.47928 0.0353,-0.0128 0.0378,-0.0702 0.003,-0.0871 -0.76669,-0.32724 -1.36487,-1.52869 -1.629,-2.89763 -0.26412,-1.36894 -0.1729,-3.12447 0.23868,-3.8721 0.003,-0.006 0.004,-0.0116 0.004,-0.018 l 0.45553,-28.82979 c 9.4e-4,-0.0242 -0.0141,-0.0451 -0.0345,-0.0483 z" /></g></g><g
         id="g41-7-9"
         transform="matrix(0.66996029,0,0,0.66996029,-210.04669,39.425453)"><rect
           style="fill:#303030;fill-opacity:1;stroke-width:4.08029;stroke-linecap:round;stroke-linejoin:round"
           id="rect40-8-1"
           width="74.176949"
           height="11.663926"
           x="-673.51703"
           y="153.75299"
           ry="0" /><text
           xml:space="preserve"
           style="font-style:normal;font-variant:normal;font-weight:normal;font-stretch:normal;font-size:10.2521px;line-height:1;font-family:'LT Saeada';-inkscape-font-specification:'LT Saeada';text-align:center;text-decoration-color:#000000;letter-spacing:0.160189px;word-spacing:0px;text-anchor:middle;fill:#fff5f5;fill-opacity:1;stroke-width:3.0272;stroke-linecap:round;stroke-linejoin:round"
           x="-636.53107"
           y="163.17319"
           id="text40-3-6"><tspan
             id="tspan40-2-3"
             style="font-style:normal;font-variant:normal;font-weight:normal;font-stretch:normal;font-family:'LT Saeada';-inkscape-font-specification:'LT Saeada';fill:#fff5f5;fill-opacity:1;stroke-width:3.0272"
             x="-636.45099"
             y="163.17319">REALINSPIRER</tspan></text></g></g></g></svg>
