<?xml version="1.0" encoding="UTF-8" standalone="no"?>
<!-- Created with Inkscape (http://www.inkscape.org/) -->

<svg
   width="56.453918mm"
   height="68.514511mm"
   viewBox="0 0 56.453918 68.514511"
   version="1.1"
   id="svg1"
   xml:space="preserve"
   sodipodi:docname="logo.svg"
   inkscape:version="1.3.2 (091e20e, 2023-11-25, custom)"
   xmlns:inkscape="http://www.inkscape.org/namespaces/inkscape"
   xmlns:sodipodi="http://sodipodi.sourceforge.net/DTD/sodipodi-0.dtd"
   xmlns:xlink="http://www.w3.org/1999/xlink"
   xmlns="http://www.w3.org/2000/svg"
   xmlns:svg="http://www.w3.org/2000/svg"><sodipodi:namedview
     id="namedview1"
     pagecolor="#ffffff"
     bordercolor="#999999"
     borderopacity="1"
     inkscape:showpageshadow="2"
     inkscape:pageopacity="0"
     inkscape:pagecheckerboard="0"
     inkscape:deskcolor="#d1d1d1"
     inkscape:document-units="mm"
     inkscape:zoom="1.0854306"
     inkscape:cx="-2.7638801"
     inkscape:cy="174.58509"
     inkscape:window-width="1920"
     inkscape:window-height="991"
     inkscape:window-x="-9"
     inkscape:window-y="-9"
     inkscape:window-maximized="1"
     inkscape:current-layer="svg1" /><defs
     id="defs1"><linearGradient
       id="linearGradient42"><stop
         style="stop-color:#303030;stop-opacity:1;"
         offset="0"
         id="stop42" /><stop
         style="stop-color:#623030;stop-opacity:1;"
         offset="1"
         id="stop43" /></linearGradient><linearGradient
       xlink:href="#linearGradient42"
       id="linearGradient43-4"
       x1="-682.50964"
       y1="96.781868"
       x2="-637.00793"
       y2="96.781868"
       gradientUnits="userSpaceOnUse" /></defs><g
     id="layer1"
     transform="translate(600.86763,-82.635534)"><g
       id="g42-1-7"
       transform="matrix(1.1359939,0,0,1.1359939,150.33823,-19.531015)"><g
         id="g40-3-0"
         transform="matrix(0.62476073,0.36070578,-0.36070578,0.62476073,-183.88036,281.14603)"><g
           id="g39-8-8"><path
             id="path26-7-9"
             style="fill:url(#linearGradient43-4);stroke-width:4.76742;stroke-linecap:round;stroke-linejoin:round"
             d="m -637.00874,97.047617 c 0.0676,-10.245719 -4.24222,-21.144888 -13.18494,-26.743147 1.71375,10.458691 -4.62379,23.522459 -16.07568,24.589331 -6.28266,1.410206 -11.97482,-6.764847 -14.48498,-7.913586 -2.3767,6.264012 -2.32692,14.012395 0.0706,20.104495 4.76134,-5.75432 15.2003,-11.536474 22.55927,-4.92254 7.09283,4.42955 7.76658,16.44777 8.76475,21.0971 8.45858,-5.72019 12.33509,-16.31839 12.351,-26.211653 z" /><path
             style="fill:#cbcbcb;stroke-width:4.76742;stroke-linecap:round;stroke-linejoin:round"
             d="m -675.61914,101.93555 c -1.85185,0.98621 -3.56797,2.20661 -5.00586,3.54687 0.0583,0.1829 0.12202,0.35936 0.18359,0.53906 1.33024,-1.46987 2.95799,-2.87901 4.82227,-4.08593 z"
             id="path39-6-3" /><path
             style="fill:#cbcbcb;stroke-width:4.76742;stroke-linecap:round;stroke-linejoin:round"
             d="m -680.46484,87.910156 c -0.0314,0.09275 -0.0652,0.183783 -0.0957,0.277344 1.41485,1.280045 3.11816,2.956231 5.04102,4.267578 0.53122,0.362284 1.10017,0.565521 1.65234,0.849609 -0.86058,-0.593897 -1.72916,-1.196772 -2.48437,-1.849609 -1.03495,-0.894655 -1.96447,-1.786836 -2.75977,-2.505859 -0.57173,-0.516902 -0.96039,-0.771999 -1.35351,-1.039063 z"
             id="path38-7-9" /><path
             id="path36-3-7"
             style="fill:#cbcbcb;stroke-width:4.76742;stroke-linecap:round;stroke-linejoin:round"
             d="m -645.59961,75.455078 c 4.83117,6.023293 7.19096,13.968679 7.14063,21.597656 -0.0135,7.708616 -2.35371,15.812716 -7.33008,21.874996 5.31739,-5.76235 7.90043,-13.96154 7.92969,-21.80273 2.2e-4,0.397281 0.001,0.725324 0.004,-0.07813 -10e-6,-0.0035 10e-6,-4.79e-4 0,-0.0039 a 0.2734844,0.2734844 0 0 1 0,-0.002 c 10e-6,-6.48e-4 0,-0.0013 0,-0.002 -0.003,-0.782101 -0.004,-0.47331 -0.004,-0.08398 0.0318,-7.737871 -2.57616,-15.757667 -7.74024,-21.5 z" /><path
             id="rect24-5-5"
             style="fill:#303030;fill-opacity:1;stroke-width:3.96973;stroke-linecap:round;stroke-linejoin:round"
             d="m -667.85543,84.543901 c 6.5872,4.071477 1.59162,14.633692 3.21673,21.462979 0.006,17.06057 0.0814,34.12171 -0.0696,51.18178 -4.72151,7.60163 -8.88634,-4.70015 -6.36705,-9.6043 0.0555,-20.11233 -0.16004,-40.22619 0.11611,-60.337254 0.38986,-1.554523 1.70438,-2.746101 3.1038,-2.703205 z" /><path
             id="path28-7-9"
             style="fill:#f6f6f6;fill-opacity:0.870968;stroke-width:3.96973;stroke-linecap:round;stroke-linejoin:round"
             d="m -669.16972,121.03298 c -0.0203,-0.003 -0.0393,0.0121 -0.0441,0.0353 -0.59441,5.24854 -0.87535,22.22053 -1.05975,28.81014 -0.48805,0.89707 -0.71459,3.03254 -0.28767,4.55226 0.21422,0.76258 0.53281,1.43419 0.93301,1.87588 0.4002,0.44167 0.88649,0.65159 1.41914,0.47928 0.0353,-0.0128 0.0378,-0.0702 0.003,-0.0871 -0.76669,-0.32724 -1.36487,-1.52869 -1.629,-2.89763 -0.26412,-1.36894 -0.1729,-3.12447 0.23868,-3.8721 0.003,-0.006 0.004,-0.0116 0.004,-0.018 l 0.45553,-28.82979 c 9.4e-4,-0.0242 -0.0141,-0.0451 -0.0345,-0.0483 z" /></g></g><g
         id="g41-7-9"
         transform="matrix(0.66996029,0,0,0.66996029,-210.04669,39.425453)"><rect
           style="fill:#303030;fill-opacity:1;stroke-width:4.08029;stroke-linecap:round;stroke-linejoin:round"
           id="rect40-8-1"
           width="74.176949"
           height="11.663926"
           x="-673.51703"
           y="153.75299"
           ry="0" /><path
           d="m -666.27371,162.92714 c 0.11277,0.17428 0.29731,0.2768 0.4921,0.2768 0.10252,0 0.20504,-0.0307 0.29731,-0.082 0.26656,-0.15378 0.35882,-0.50236 0.20504,-0.76891 l -1.20974,-2.09143 c 0.87142,-0.35882 1.30201,-1.19949 1.30201,-2.04017 0,-1.10722 -0.75865,-2.2247 -2.28622,-2.2247 h -2.4605 c -0.31782,0 -0.57412,0.2563 -0.57412,0.56386 v 6.44857 c 0,0.0923 0.0718,0.16404 0.16404,0.16404 h 0.79966 c 0.0923,0 0.17429,-0.0718 0.17429,-0.16404 v -2.56302 h 1.68134 z m -3.09613,-5.85395 h 1.85563 c 0.79966,0 1.19949,0.57412 1.19949,1.13798 0,0.58437 -0.39983,1.15849 -1.19949,1.15849 h -1.85563 z m 5.26572,5.6489 c 0,0.24606 0.20504,0.4511 0.4511,0.4511 h 3.89579 c 0.28706,0 0.52286,-0.2358 0.52286,-0.55362 0,-0.28705 -0.2358,-0.52285 -0.52286,-0.52285 h -3.2089 v -2.00941 h 2.9321 c 0.33832,0 0.53311,-0.18454 0.53311,-0.51261 0,-0.32807 -0.19479,-0.50235 -0.53311,-0.50235 h -2.9321 v -1.99916 h 3.2089 c 0.28706,0 0.52286,-0.2358 0.52286,-0.52286 0,-0.31781 -0.2358,-0.55361 -0.52286,-0.55361 h -3.89579 c -0.24606,0 -0.4511,0.20504 -0.4511,0.45109 z m 5.69633,0.2153 c -0.0513,0.13328 0,0.2358 0.11277,0.2358 h 0.92269 c 0.10252,0 0.19479,-0.0103 0.24605,-0.13328 l 0.57412,-1.39429 h 3.31143 l 0.57412,1.39429 c 0.0513,0.12303 0.14353,0.13328 0.24605,0.13328 h 0.91243 c 0.11278,0 0.16404,-0.10252 0.11278,-0.2358 l -2.85009,-6.53059 c -0.12302,-0.29731 -0.38958,-0.45109 -0.64588,-0.45109 -0.27681,0 -0.54336,0.15378 -0.66638,0.45109 z m 2.27597,-2.30672 1.2405,-2.99362 1.23025,2.99362 z m 5.76808,2.09142 c 0,0.24606 0.20504,0.4511 0.45109,0.4511 h 3.8958 c 0.28706,0 0.52286,-0.2358 0.52286,-0.55362 0,-0.28705 -0.2358,-0.52285 -0.52286,-0.52285 h -3.20891 v -5.53614 c 0,-0.30756 -0.2563,-0.56386 -0.56386,-0.56386 -0.31782,0 -0.57412,0.2563 -0.57412,0.56386 z m 5.95263,0.28706 c 0,0.0923 0.0718,0.16404 0.16403,0.16404 h 0.79967 c 0.0923,0 0.17428,-0.0718 0.17428,-0.16404 v -6.44857 c 0,-0.30756 -0.2563,-0.56386 -0.56386,-0.56386 -0.31782,0 -0.57412,0.2563 -0.57412,0.56386 z m 2.42591,0 c 0,0.0923 0.0718,0.16404 0.16403,0.16404 h 0.79967 c 0.0923,0 0.17428,-0.0718 0.17428,-0.16404 v -4.97226 l 3.71126,4.94151 c 0.082,0.10252 0.18454,0.19479 0.36908,0.19479 h 0.58437 c 0.0923,0 0.17429,-0.0718 0.17429,-0.16404 v -6.44857 c 0,-0.30756 -0.25631,-0.56386 -0.57412,-0.56386 -0.31782,0 -0.56387,0.2563 -0.56387,0.56386 v 4.6442 l -3.56773,-4.74672 c -0.15378,-0.21529 -0.35882,-0.46134 -0.68689,-0.46134 -0.36907,0 -0.58437,0.2563 -0.58437,0.56386 z m 9.65363,-7.17647 c -1.7326,0 -2.53227,1.03547 -2.53227,2.07093 0,2.77832 4.00857,1.65059 4.00857,3.26017 0,0.56386 -0.48185,1.11747 -1.46605,1.11747 -0.64588,0 -1.18924,-0.22554 -1.65059,-0.60487 -0.20504,-0.16403 -0.39983,-0.26655 -0.59462,-0.26655 -0.10252,0 -0.20504,0.0308 -0.30756,0.10252 -0.24605,0.18453 -0.24605,0.66638 0.15378,0.9842 0.65614,0.53311 1.4558,0.84067 2.39899,0.84067 1.74286,0 2.60404,-1.08672 2.60404,-2.17344 0,-2.66555 -4.00858,-1.64034 -4.00858,-3.26017 0,-0.51261 0.43059,-1.01496 1.39429,-1.01496 0.46134,0 0.94319,0.10252 1.29176,0.37933 0.20505,0.15378 0.39984,0.2563 0.58437,0.2563 0.11278,0 0.2153,-0.0308 0.30757,-0.10252 0.2563,-0.18454 0.2563,-0.66639 -0.14353,-0.97395 -0.54336,-0.43059 -1.28151,-0.61513 -2.04017,-0.61513 z m 3.65616,7.17647 c 0,0.0923 0.0718,0.16404 0.16404,0.16404 h 0.79966 c 0.0923,0 0.17429,-0.0718 0.17429,-0.16404 v -2.15294 h 1.7121 c 1.69159,0 2.53227,-1.20975 2.53227,-2.42975 0,-1.20974 -0.84068,-2.42974 -2.53227,-2.42974 h -2.27597 c -0.31781,0 -0.57412,0.2563 -0.57412,0.56386 z m 1.13799,-5.93596 h 1.67109 c 0.9637,0 1.44554,0.67664 1.44554,1.35327 0,0.67664 -0.48184,1.35328 -1.44554,1.35328 h -1.67109 z m 5.24523,5.93596 c 0,0.0923 0.0718,0.16404 0.16403,0.16404 h 0.79967 c 0.0923,0 0.17428,-0.0718 0.17428,-0.16404 v -6.44857 c 0,-0.30756 -0.2563,-0.56386 -0.56386,-0.56386 -0.31782,0 -0.57412,0.2563 -0.57412,0.56386 z m 6.66003,-0.082 c 0.11277,0.17428 0.29731,0.2768 0.4921,0.2768 0.10252,0 0.20504,-0.0307 0.29731,-0.082 0.26655,-0.15378 0.35882,-0.50236 0.20504,-0.76891 l -1.20975,-2.09143 c 0.87143,-0.35882 1.30202,-1.19949 1.30202,-2.04017 0,-1.10722 -0.75865,-2.2247 -2.28622,-2.2247 h -2.4605 c -0.31782,0 -0.57412,0.2563 -0.57412,0.56386 v 6.44857 c 0,0.0923 0.0718,0.16404 0.16403,0.16404 h 0.79967 c 0.0923,0 0.17428,-0.0718 0.17428,-0.16404 v -2.56302 h 1.68135 z m -3.09614,-5.85395 h 1.85563 c 0.79967,0 1.1995,0.57412 1.1995,1.13798 0,0.58437 -0.39983,1.15849 -1.1995,1.15849 h -1.85563 z m 5.26573,5.6489 c 0,0.24606 0.20504,0.4511 0.45109,0.4511 h 3.8958 c 0.28706,0 0.52286,-0.2358 0.52286,-0.55362 0,-0.28705 -0.2358,-0.52285 -0.52286,-0.52285 h -3.20891 v -2.00941 h 2.9321 c 0.33832,0 0.53311,-0.18454 0.53311,-0.51261 0,-0.32807 -0.19479,-0.50235 -0.53311,-0.50235 h -2.9321 v -1.99916 h 3.20891 c 0.28706,0 0.52286,-0.2358 0.52286,-0.52286 0,-0.31781 -0.2358,-0.55361 -0.52286,-0.55361 h -3.8958 c -0.24605,0 -0.45109,0.20504 -0.45109,0.45109 z m 10.18675,0.20505 c 0.11277,0.17428 0.29731,0.2768 0.4921,0.2768 0.10252,0 0.20504,-0.0307 0.29731,-0.082 0.26655,-0.15378 0.35882,-0.50236 0.20504,-0.76891 l -1.20975,-2.09143 c 0.87143,-0.35882 1.30202,-1.19949 1.30202,-2.04017 0,-1.10722 -0.75866,-2.2247 -2.28622,-2.2247 h -2.4605 c -0.31782,0 -0.57412,0.2563 -0.57412,0.56386 v 6.44857 c 0,0.0923 0.0718,0.16404 0.16403,0.16404 h 0.79967 c 0.0923,0 0.17428,-0.0718 0.17428,-0.16404 v -2.56302 h 1.68135 z m -3.09614,-5.85395 h 1.85563 c 0.79967,0 1.1995,0.57412 1.1995,1.13798 0,0.58437 -0.39983,1.15849 -1.1995,1.15849 h -1.85563 z"
           id="text40-3-6"
           style="font-size:10.2521px;line-height:1;font-family:'LT Saeada';-inkscape-font-specification:'LT Saeada';text-align:center;letter-spacing:0.160189px;word-spacing:0px;text-anchor:middle;fill:#fff5f5;stroke-width:3.0272;stroke-linecap:round;stroke-linejoin:round"
           aria-label="REALINSPIRER" /></g></g></g></svg>
