<svg xmlns="http://www.w3.org/2000/svg" xmlns:xlink="http://www.w3.org/1999/xlink" xml:space="preserve" id="svg1" width="546.992" height="334.198" version="1.1" viewBox="0 0 144.725 88.423"><defs id="defs1"><filter id="filter2167" width="1.028" height="1.147" x="-.014" y="-.073" style="color-interpolation-filters:sRGB"><feGaussianBlur id="feGaussianBlur2167" stdDeviation="2.393"/></filter><filter id="filter362" width="1.044" height="1.108" x="-.036" y="-.055" style="color-interpolation-filters:sRGB"><feFlood id="feFlood361" flood-color="#040404" flood-opacity=".71" result="flood"/><feGaussianBlur id="feGaussianBlur361" in="SourceGraphic" result="blur" stdDeviation="6.192"/><feOffset id="feOffset361" dx="0" dy="0" in="blur" result="offset"/><feComposite id="feComposite361" in="flood" in2="offset" operator="in" result="comp1"/><feComposite id="feComposite362" in="SourceGraphic" in2="comp1" operator="over" result="comp2"/></filter><filter id="filter364" width="1.044" height="1.108" x="-.036" y="-.055" style="color-interpolation-filters:sRGB"><feFlood id="feFlood362" flood-color="#040404" flood-opacity=".71" result="flood"/><feGaussianBlur id="feGaussianBlur362" in="SourceGraphic" result="blur" stdDeviation="6.192"/><feOffset id="feOffset362" dx="0" dy="0" in="blur" result="offset"/><feComposite id="feComposite363" in="flood" in2="offset" operator="in" result="comp1"/><feComposite id="feComposite364" in="SourceGraphic" in2="comp1" operator="over" result="comp2"/></filter><filter id="filter176" width="1.387" height="1.626" x="-.193" y="-.313" style="color-interpolation-filters:sRGB"><feGaussianBlur id="feGaussianBlur176" stdDeviation="10.242"/></filter><linearGradient xlink:href="#linearGradient2120-1" id="linearGradient2255" x1="1135.492" x2="1455.251" y1="-189.767" y2="-83.107" gradientUnits="userSpaceOnUse"/><linearGradient id="linearGradient2120-1"><stop id="stop2120" offset="0" style="stop-color:#9b3609;stop-opacity:1"/><stop id="stop2121" offset="1" style="stop-color:#9b3509;stop-opacity:1"/></linearGradient><linearGradient xlink:href="#linearGradient2120-1" id="linearGradient349" x1="1135.492" x2="1455.251" y1="-189.767" y2="-83.107" gradientUnits="userSpaceOnUse"/><clipPath id="clipPath217" clipPathUnits="userSpaceOnUse"><rect id="rect238" width="314.29" height="192.65" x="-797.057" y="2607.8" ry="18.352" style="fill:#fff;fill-opacity:1;stroke:none;stroke-width:.460563;stroke-linecap:round;stroke-linejoin:round;stroke-dasharray:1.84226,1.84226"/></clipPath></defs><g id="layer1" transform="translate(585.78 -3827.504)"><g id="g2289" style="display:inline" transform="translate(873.138 409.853) scale(.06736)"><g id="g2262" style="filter:url(#filter362)" transform="translate(-301.373 615.054)"><g id="g2219" transform="translate(472.399)"><g id="g2210" style="fill:#696d19;fill-opacity:.646237;filter:url(#filter2167)" transform="matrix(.69394 0 0 .69394 354.411 236.848)"><path id="path2204" d="M1106.162-163.28c-10.278 0-18.285 8.008-18.285 18.286v24.556c0 10.279 8.006 18.284 18.285 18.284h351.961c10.279 0 18.283-8.005 18.283-18.284v-24.556c0-10.279-8.005-18.285-18.283-18.285z" style="opacity:1;fill:#696d19;fill-opacity:.646237;stroke-width:1;stroke-linecap:round;stroke-linejoin:round;stroke-opacity:0"/></g><g id="g2218" transform="matrix(.69394 0 0 .69394 354.411 229.703)"><path id="path2212" d="M1106.162-163.28c-10.278 0-18.285 8.008-18.285 18.286v24.556c0 10.279 8.006 18.284 18.285 18.284h351.961c10.279 0 18.283-8.005 18.283-18.284v-24.556c0-10.279-8.005-18.285-18.283-18.285z" style="opacity:1;fill:url(#linearGradient349);fill-opacity:1;stroke-width:1;stroke-linecap:round;stroke-linejoin:round;stroke-opacity:0"/></g></g></g><g id="g2283" style="filter:url(#filter364)"><g id="g2169" transform="translate(171.026 308.696)"><g id="g2158" style="fill:#696d19;fill-opacity:.646237;filter:url(#filter2167)" transform="matrix(.69394 0 0 .69394 354.411 236.848)"><path id="path2156" d="M1106.162-163.28c-10.278 0-18.285 8.008-18.285 18.286v24.556c0 10.279 8.006 18.284 18.285 18.284h351.961c10.279 0 18.283-8.005 18.283-18.284v-24.556c0-10.279-8.005-18.285-18.283-18.285z" style="opacity:1;fill:#696d19;fill-opacity:.646237;stroke-width:1;stroke-linecap:round;stroke-linejoin:round;stroke-opacity:0"/></g><g id="g2154" transform="matrix(.69394 0 0 .69394 354.411 229.703)"><path id="path2127" d="M1106.162-163.28c-10.278 0-18.285 8.008-18.285 18.286v24.556c0 10.279 8.006 18.284 18.285 18.284h351.961c10.279 0 18.283-8.005 18.283-18.284v-24.556c0-10.279-8.005-18.285-18.283-18.285z" style="opacity:1;fill:url(#linearGradient2255);fill-opacity:1;stroke-width:1;stroke-linecap:round;stroke-linejoin:round;stroke-opacity:0"/></g></g></g></g><path id="path96" d="M1467.285 94.482c-6.966.016-13.977-.031-21.033.024a5.823 5.823 0 0 0-.209.006c-8.667.379-16.518 5.337-20.686 12.877-2.48 4.35-3.388 9.208-3.189 13.853l-.01-.25v19.727a5.823 5.823 0 0 0 .742 2.844c.965 1.723 3.224 3.093 4.656 3.378 1.433.285 2.138.13 2.301.123l-.248.006h8.9a5.823 5.823 0 0 0 2.844-.742c1.724-.964 3.094-3.223 3.38-4.656.284-1.433.13-2.138.122-2.3l.01.261c.016-6.85-.03-13.652.024-20.406.047-.697.941-1.777 1.56-1.926a5.823 5.823 0 0 0 .028-.008c.567-.14 2.294-.015 4.906-.107h17.016a5.823 5.823 0 0 0 2.843-.743c1.724-.964 3.094-3.223 3.38-4.656.284-1.433.13-2.14.122-2.303l.01.25v-8.9a5.823 5.823 0 0 0-.742-2.844c-.965-1.723-3.223-3.094-4.656-3.379-1.433-.285-2.138-.13-2.3-.123zm46.7 0c-3.327.363-3.608 1.268-4.647 2.235a5.823 5.823 0 0 0-1.705 4.117v10a5.823 5.823 0 0 0 .742 2.844c.965 1.723 3.223 3.094 4.656 3.379 1.433.285 2.138.13 2.301.123l-.262.006c6.85.016 13.651-.03 20.405.023.7.047 1.778.936 1.93 1.563a5.823 5.823 0 0 0 0 .006c.149.617.02 2.383.112 5.027v16.914a5.823 5.823 0 0 0 .743 2.844c.964 1.723 3.223 3.094 4.656 3.379 1.433.285 2.138.13 2.3.123l-.247.006h8.9a5.823 5.823 0 0 0 2.844-.742c1.723-.965 3.094-3.224 3.379-4.657.285-1.433.13-2.138.123-2.3l.01.232c-.018-6.97.036-13.993-.027-21.067a5.823 5.823 0 0 0-.01-.207c-.387-8.657-5.346-16.495-12.877-20.654-4.348-2.477-9.202-3.387-13.85-3.187l.25-.006zm-85.471 85.471c-3.326.362-3.608 1.268-4.647 2.235a5.823 5.823 0 0 0-1.705 4.13c.017 7.342-.034 14.73.025 22.164a5.823 5.823 0 0 0 .01.215c.39 8.656 5.348 16.493 12.879 20.653 4.302 2.448 9.11 3.378 13.738 3.187l-.24.006h19.828a5.823 5.823 0 0 0 2.844-.742c1.723-.965 3.094-3.223 3.379-4.656.285-1.433.13-2.14.123-2.303l.01.25v-8.9a5.823 5.823 0 0 0-.742-2.844c-.965-1.724-3.224-3.094-4.657-3.38-1.432-.284-2.137-.13-2.3-.122l.263-.006c-6.857-.018-13.664.032-20.418-.026-.692-.045-1.796-.978-1.931-1.609v-.002c-.153-.72.01-2.453-.106-5.219l.01.239v-16.918a5.823 5.823 0 0 0-.742-2.844c-.964-1.723-3.223-3.094-4.656-3.379-1.433-.285-2.138-.13-2.301-.123l.248-.006zm115.357 0c-3.326.361-3.611 1.267-4.646 2.235a5.823 5.823 0 0 0-1.705 4.103c-.018 7.22.032 14.39-.025 21.512-.046.69-.94 1.771-1.563 1.922a5.823 5.823 0 0 0 0 .002c-.62.15-2.384.02-5.027.113h-16.916a5.823 5.823 0 0 0-2.844.742c-1.723.965-3.094 3.223-3.379 4.656-.285 1.433-.13 2.14-.123 2.303l-.01-.25v8.9a5.823 5.823 0 0 0 .742 2.844c.965 1.724 3.224 3.094 4.656 3.38 1.433.284 2.138.13 2.301.122l-.232.006c6.97-.018 13.994.037 21.068-.027a5.823 5.823 0 0 0 .203-.006c8.95-.395 17.008-5.678 21.047-13.606 2.243-4.239 2.977-8.855 2.799-13.209l.01.239v-19.63a5.823 5.823 0 0 0-.742-2.843c-.965-1.723-3.224-3.094-4.656-3.379-1.433-.285-2.138-.13-2.301-.123l.248-.006z" style="color:#000;fill:#fff;stroke-width:5;stroke-linecap:round;stroke-linejoin:round;stroke-dasharray:none" transform="matrix(.92339 0 0 .92339 114.241 12.527)"/><g id="g177" style="stroke-width:1.00038;stroke-dasharray:none" transform="matrix(1.0496 0 0 1.0496 32.753 -122.788)"><rect id="rect80" width="314.29" height="192.65" x="-797.057" y="2607.8" ry="18.352" style="fill:#fff;fill-opacity:1;stroke:none;stroke-width:1.00038;stroke-linecap:round;stroke-linejoin:round;stroke-dasharray:none"/><text xml:space="preserve" id="text101" x="-757.8" y="2408.189" style="font-size:16.1887px;line-height:1;font-family:&quot;LT Saeada&quot;;-inkscape-font-specification:&quot;LT Saeada&quot;;text-align:start;text-decoration-color:#000;letter-spacing:.822609px;word-spacing:-.00822609px;text-anchor:start;white-space:pre;inline-size:136.86;fill:#464646;fill-opacity:1;stroke-width:.935549;stroke-linecap:round;stroke-linejoin:round;stroke-dasharray:none" transform="translate(164.854 77.835) scale(1.0693)"><tspan id="tspan2" x="-757.8" y="2408.189"><tspan id="tspan1" dx="0 0 0 0 0 0 0 0.0082253153 -0.0082231164 0 0 0 0.0082212621" style="font-weight:300;-inkscape-font-specification:&quot;LT Saeada Light&quot;">Minimal logo </tspan></tspan><tspan id="tspan4" x="-757.8" y="2424.377"><tspan id="tspan3" dx="0 0 0 0 0 0 0.0082269842 -0.0082269311 0 0 0.0082222158 -0.0082269311 0 0 0 0.0082298452" style="font-weight:300;-inkscape-font-specification:&quot;LT Saeada Light&quot;">design for home </tspan></tspan><tspan id="tspan6" x="-757.8" y="2440.566"><tspan id="tspan5" dx="0 0 0 0 0 0.0082260305 -0.0082269311" style="font-weight:300;-inkscape-font-specification:&quot;LT Saeada Light&quot;">decor business</tspan></tspan></text><rect id="rect116" width="127.094" height="78.548" x="-785.411" y="2618.974" ry="13.55" style="fill:#414141;fill-opacity:1;stroke:none;stroke-width:1.00038;stroke-linecap:round;stroke-linejoin:round;stroke-dasharray:none"/><text xml:space="preserve" id="text174" x="-695.998" y="2408.189" style="font-size:16.1887px;line-height:1;font-family:&quot;LT Saeada&quot;;-inkscape-font-specification:&quot;LT Saeada&quot;;text-align:center;text-decoration-color:#000;letter-spacing:.822609px;word-spacing:-.00822609px;text-anchor:middle;white-space:pre;inline-size:358.592;fill:#646464;fill-opacity:1;stroke-width:1.24835;stroke-linecap:round;stroke-linejoin:round;stroke-dasharray:none" transform="matrix(.80136 0 0 .80136 -82.852 798.336)"><tspan id="tspan9" x="-695.998" y="2408.189"><tspan id="tspan7" dx="0 0 0 0 0 0.0082250768 -0.0082231164 0 0 0 0 0.0082250768 -0.0082193017 0 0 0 0 0.0082298452 -0.0082193017 0 0 0.0082288915 -0.0082345605 0 0 0 0 0.0082191164 -0.0082193017" style="font-weight:300;-inkscape-font-specification:&quot;LT Saeada Light&quot;">Lorem ipsum dolor sit amet, consectetur</tspan><tspan id="tspan10" y="2408.189"> </tspan></tspan><tspan id="tspan14" x="-695.998" y="2424.377"><tspan id="tspan11" dx="0 0 0 0 0 0 0 0 0 0 0.0082260305 -0.0082269311 0 0 0 0 0.0082267458 -0.0082269311 0 0 0.0082298452 -0.0082345605 0 0.0082212621 -0.0082193017 0 0 0 0 0 0 0.0082298452 -0.0082345605" style="font-weight:300;-inkscape-font-specification:&quot;LT Saeada Light&quot;">adipiscing elit, sed do eiusmod tempor</tspan><tspan id="tspan15" y="2424.377"> </tspan></tspan><tspan id="tspan17" x="-695.998" y="2440.566"><tspan id="tspan16" dx="0 0 0 0 0 0 0 0 0 0 0.0082288915 -0.0082269311 0 0.0082212621 -0.0082269311 0 0 0 0 0 0.0082222158 -0.0082193017 0 0.0082288915 -0.0082193017 0 0 0 0 0 0.0082222158 -0.0082193017" style="font-weight:300;-inkscape-font-specification:&quot;LT Saeada Light&quot;">incididunt ut labore et dolore magna.</tspan></tspan></text><use xlink:href="#rect116" id="use176" x="0" y="0" clip-path="url(#clipPath217)" style="opacity:.756098;stroke-width:1.00038;stroke-dasharray:none;filter:url(#filter176)"/><text xml:space="preserve" id="text98-3" x="-695.998" y="2408.189" style="font-size:16.1887px;line-height:1;font-family:&quot;LT Saeada&quot;;-inkscape-font-specification:&quot;LT Saeada&quot;;text-align:center;text-decoration-color:#000;letter-spacing:.822609px;word-spacing:-.00822609px;text-anchor:middle;white-space:pre;inline-size:196.044;fill:#959595;fill-opacity:1;stroke-width:1.64202;stroke-linecap:round;stroke-linejoin:round;stroke-dasharray:none" transform="matrix(.60924 0 0 .60924 -181.671 1168.587)"><tspan id="tspan19" x="-695.998" y="2408.189"><tspan id="tspan18" dx="0 0 0 0.0082250768 -0.0082250237 0 0 0 0 0 0.0082288915 -0.0082269311" style="font-weight:300;-inkscape-font-specification:&quot;LT Saeada Light&quot;">6th August 2024</tspan></tspan></text><g id="g176" style="stroke-width:1.00038;stroke-dasharray:none" transform="translate(56.114 279.053)"><text xml:space="preserve" id="text176" x="-695.998" y="2408.189" style="font-size:16.1887px;line-height:1;font-family:&quot;LT Saeada&quot;;-inkscape-font-specification:&quot;LT Saeada&quot;;text-align:center;text-decoration-color:#000;letter-spacing:.822609px;word-spacing:-.00822609px;text-anchor:middle;white-space:pre;inline-size:341.91;fill:#5b5b5b;fill-opacity:1;stroke-width:1.81109;stroke-linecap:round;stroke-linejoin:round;stroke-dasharray:none" transform="matrix(.55236 0 0 .55236 -311.516 1171.06)"><tspan id="tspan21" x="-695.998" y="2408.189"><tspan id="tspan20" dx="0 0 0 0 0.0082279379 -0.008225739">View logo</tspan></tspan></text><path id="path176" d="M-717.745 2503.62h43.103" style="fill:none;fill-opacity:1;stroke:#5b5b5b;stroke-width:1.00038;stroke-linecap:round;stroke-linejoin:round;stroke-dasharray:none;stroke-dashoffset:0;stroke-opacity:1"/></g><path id="text5" d="M-591.2 3175.52c-.814-1.73-2.341-2.85-4.071-2.85-.51 0-1.018.101-1.527.305-2.34.814-3.664 3.46-2.646 5.598l27.174 62.388c1.018 2.239 3.053 3.46 5.19 3.46 2.138 0 4.275-1.221 5.191-3.46l27.276-62.388c.916-2.138-.407-4.784-2.646-5.598a4.085 4.085 0 0 0-1.527-.305c-1.832 0-3.359 1.12-4.173 2.85l-24.12 56.586zm70.307 65.034a3.649 3.649 0 0 0 3.664 3.664h39.998c2.34 0 4.173-1.832 4.173-4.275 0-2.34-1.832-4.071-4.173-4.071h-34.807v-23.306h32.059c2.544 0 4.07-1.425 4.07-3.97 0-2.646-1.526-3.969-4.07-3.969h-32.06v-23.306h34.808c2.34 0 4.173-1.73 4.173-4.071 0-2.443-1.832-4.275-4.173-4.275h-39.998a3.649 3.649 0 0 0-3.664 3.664zm60.843-32.06c0 21.78 14.859 37.148 36.028 37.148 9.974 0 18.523-3.46 24.731-9.363 3.054-2.442 3.054-6.208 1.018-7.633-.712-.61-1.526-.814-2.34-.814-1.426 0-3.054.814-4.58 2.137-4.682 4.682-11.196 7.531-18.829 7.531-15.979 0-27.174-12.01-27.174-29.005 0-16.997 11.195-29.006 27.174-29.006 7.633 0 14.147 2.85 18.828 7.531 1.527 1.323 3.155 2.137 4.58 2.137.815 0 1.629-.203 2.341-.814 2.036-1.425 2.036-5.19-1.018-7.633-6.208-5.903-14.757-9.363-24.73-9.363-21.17 0-36.03 15.368-36.03 37.147zm122.518-27.173c2.34 0 4.173-1.73 4.173-4.173 0-2.341-1.832-4.173-4.173-4.173h-46.511c-2.24 0-4.173 1.832-4.173 4.173 0 2.34 1.934 4.173 4.173 4.173h18.828v61.574c0 .814.61 1.323 1.323 1.323h6.208c.713 0 1.324-.51 1.324-1.323v-61.574zm46.9 64.423c21.168 0 36.13-15.368 36.13-37.25 0-21.78-14.962-37.147-36.13-37.147-21.17 0-36.03 15.368-36.03 37.148 0 21.881 14.86 37.25 36.03 37.25zm0-8.142c-15.98 0-27.175-12.01-27.175-29.107 0-16.997 11.196-29.006 27.174-29.006 16.08 0 27.276 12.01 27.276 29.006 0 17.098-11.195 29.107-27.276 29.107zm94.427 4.682c.815 1.425 2.24 2.239 3.766 2.239.712 0 1.527-.305 2.34-.713 2.036-1.22 2.85-3.867 1.528-6.004l-13.13-22.798c9.364-3.155 14.147-11.704 14.147-20.355 0-10.788-7.43-21.678-22.39-21.678h-25.037c-2.544 0-4.478 1.934-4.478 4.376v65.544c0 .814.61 1.323 1.323 1.323h6.208c.713 0 1.323-.51 1.323-1.323v-26.564h19.44zm-34.4-60.963h20.355c9.364 0 13.944 6.615 13.944 13.23 0 6.718-4.682 13.333-13.944 13.333h-20.355z" aria-label="VECTOR" style="font-weight:300;font-size:101.775px;line-height:1;font-family:&quot;LT Saeada&quot;;-inkscape-font-specification:&quot;LT Saeada Light&quot;;letter-spacing:5.17159px;word-spacing:-.0517159px;fill:none;fill-opacity:.518453;stroke:#999;stroke-width:1.00038;stroke-linecap:round;stroke-linejoin:round;stroke-dasharray:none"/><path id="text6" d="M-588.531 3307.883c0 24.35 16.613 41.532 40.28 41.532 22.417 0 38.233-16.613 38.233-40.053 0-2.617-2.048-4.665-4.665-4.665h-29.812c-2.504 0-4.666 2.048-4.666 4.665 0 2.731 2.162 4.665 4.666 4.665h24.35c-1.82 15.59-12.972 26.285-28.105 26.285-17.865 0-30.382-13.427-30.382-32.429 0-19.002 12.517-32.43 30.382-32.43 8.534 0 15.816 3.187 21.05 8.421 1.707 1.48 3.528 2.39 5.12 2.39.91 0 1.821-.228 2.618-.91 2.275-1.594 2.275-5.804-1.138-8.535-6.941-6.6-16.5-10.468-27.65-10.468-23.668 0-40.281 17.182-40.281 41.532zm86.57 37.891c-.454 1.138 0 2.048 1.025 2.048h7.965c.796 0 1.593-.114 2.048-1.138l7.282-17.181h39.598l7.283 17.181c.341 1.024 1.251 1.138 2.048 1.138h7.965c.91 0 1.48-.91 1.024-2.048l-32.315-74.075c-1.138-2.504-3.414-3.869-5.804-3.869s-4.665 1.365-5.803 3.869zm21.962-25.147 16.157-38.346 16.158 38.346zm66.544 25.716c-.114.91.455 1.48 1.251 1.48h6.941c.797 0 1.593-.57 1.707-1.48l4.666-58.714 22.53 57.349c.91 2.161 1.479 3.072 5.006 3.072 3.641 0 4.21-.91 5.007-3.072l22.53-57.35 4.665 58.715c.114.91.91 1.48 1.707 1.48h6.94c.797 0 1.366-.57 1.252-1.48l-6.372-73.279c-.341-2.845-2.39-5.006-5.575-5.006-3.186 0-5.12 2.048-5.917 4.096l-24.237 61.331-24.237-61.331c-.796-2.048-2.844-4.096-6.03-4.096-3.073 0-5.235 2.161-5.462 5.006zm99.542-2.617a4.08 4.08 0 0 0 4.097 4.096h44.718c2.617 0 4.665-2.048 4.665-4.779 0-2.617-2.048-4.551-4.665-4.551h-38.915v-26.058h35.843c2.844 0 4.551-1.593 4.551-4.437 0-2.959-1.707-4.438-4.551-4.438h-35.843v-26.057h38.915c2.617 0 4.665-1.935 4.665-4.552 0-2.73-2.048-4.779-4.665-4.779h-44.718a4.08 4.08 0 0 0-4.097 4.097zm96.129-77.375c-18.661 0-27.536 11.037-27.536 22.188 0 30.609 46.083 17.296 46.083 38.005 0 6.941-6.03 13.882-18.206 13.882-7.965 0-14.678-2.73-20.367-7.624-1.707-1.479-3.528-2.39-5.12-2.39-.911 0-1.821.228-2.618.911-2.162 1.593-2.276 5.803 1.252 8.534 7.282 6.145 16.271 9.786 26.853 9.786 18.775 0 28.106-11.606 28.106-23.099 0-29.926-46.084-17.41-46.084-38.005 0-6.6 5.576-13.085 17.637-13.085 5.803 0 11.834 1.365 16.272 4.893 1.82 1.365 3.527 2.39 5.234 2.39.91 0 1.82-.342 2.617-.911 2.162-1.593 2.162-5.803-1.252-8.534-6.144-4.893-14.45-6.941-22.871-6.941z" aria-label="GAMES" style="font-weight:300;font-size:113.787px;line-height:1;font-family:&quot;LT Saeada&quot;;-inkscape-font-specification:&quot;LT Saeada Light&quot;;letter-spacing:5.78193px;word-spacing:-.0578194px;fill:none;fill-opacity:.518453;stroke:#999;stroke-width:.952745;stroke-linecap:round;stroke-linejoin:round"/><path id="text7" d="M-590.124 3455.946c-.455 1.138 0 2.048 1.024 2.048h7.965c.797 0 1.593-.114 2.048-1.138l7.283-17.182h39.598l7.282 17.182c.341 1.024 1.252 1.138 2.048 1.138h7.965c.91 0 1.48-.91 1.024-2.048l-32.315-74.075c-1.138-2.504-3.414-3.869-5.803-3.869-2.39 0-4.666 1.365-5.804 3.869zm21.96-25.147 16.159-38.346 16.157 38.346zm69.503 25.716c0 .91.683 1.48 1.48 1.48h6.94c.797 0 1.48-.57 1.48-1.48v-25.147h20.71c18.66 0 27.877-13.313 27.877-26.512 0-13.2-9.217-26.513-27.878-26.513h-25.602c-2.845 0-5.007 2.162-5.007 4.893zm9.9-68.841h20.368c12.403 0 18.433 8.534 18.433 17.068 0 8.648-6.144 17.182-18.433 17.182h-20.368zm63.7 68.841c0 .91.682 1.48 1.479 1.48h6.94c.797 0 1.48-.57 1.48-1.48v-25.147h20.71c18.66 0 27.877-13.313 27.877-26.512 0-13.2-9.217-26.513-27.878-26.513h-25.602c-2.845 0-5.006 2.162-5.006 4.893zm9.899-68.841h20.368c12.403 0 18.433 8.534 18.433 17.068 0 8.648-6.144 17.182-18.433 17.182h-20.368zm90.326-11.151c-18.661 0-27.537 11.037-27.537 22.188 0 30.609 46.084 17.296 46.084 38.005 0 6.941-6.03 13.882-18.206 13.882-7.965 0-14.678-2.73-20.368-7.624-1.707-1.479-3.527-2.39-5.12-2.39-.91 0-1.82.228-2.617.911-2.162 1.593-2.276 5.803 1.251 8.534 7.283 6.145 16.272 9.786 26.854 9.786 18.775 0 28.105-11.606 28.105-23.099 0-29.926-46.083-17.41-46.083-38.005 0-6.6 5.575-13.085 17.637-13.085 5.803 0 11.834 1.365 16.271 4.893 1.82 1.365 3.528 2.39 5.234 2.39.91 0 1.821-.342 2.618-.911 2.162-1.593 2.162-5.803-1.252-8.534-6.145-4.893-14.451-6.941-22.871-6.941z" aria-label="APPS" style="font-weight:300;font-size:113.787px;line-height:1;font-family:&quot;LT Saeada&quot;;-inkscape-font-specification:&quot;LT Saeada Light&quot;;letter-spacing:5.78193px;word-spacing:-.0578194px;fill:none;fill-opacity:.518453;stroke:#999;stroke-width:.952745;stroke-linecap:round;stroke-linejoin:round"/><path id="text9" d="M-590.124 3554.415c-.455 1.138 0 2.048 1.024 2.048h7.965c.797 0 1.593-.114 2.048-1.138l7.283-17.182h39.598l7.282 17.182c.341 1.024 1.252 1.138 2.048 1.138h7.965c.91 0 1.48-.91 1.024-2.048l-32.315-74.075c-1.138-2.504-3.414-3.87-5.803-3.87-2.39 0-4.666 1.366-5.804 3.87zm21.96-25.147 16.159-38.346 16.157 38.346zm96.13-54.276c-18.661 0-27.537 11.037-27.537 22.188 0 30.609 46.084 17.296 46.084 38.005 0 6.941-6.03 13.882-18.206 13.882-7.965 0-14.679-2.73-20.368-7.624-1.707-1.479-3.527-2.39-5.12-2.39-.91 0-1.82.228-2.617.911-2.162 1.593-2.276 5.803 1.251 8.534 7.283 6.144 16.272 9.786 26.854 9.786 18.775 0 28.105-11.607 28.105-23.099 0-29.926-46.083-17.41-46.083-38.005 0-6.6 5.575-13.085 17.637-13.085 5.803 0 11.833 1.365 16.271 4.892 1.82 1.366 3.528 2.39 5.234 2.39.91 0 1.82-.341 2.617-.91 2.162-1.593 2.162-5.804-1.251-8.534-6.145-4.893-14.451-6.941-22.871-6.941zm70.64 0c-18.661 0-27.536 11.037-27.536 22.188 0 30.609 46.083 17.296 46.083 38.005 0 6.941-6.03 13.882-18.206 13.882-7.965 0-14.678-2.73-20.367-7.624-1.707-1.479-3.528-2.39-5.12-2.39-.911 0-1.821.228-2.618.911-2.162 1.593-2.276 5.803 1.252 8.534 7.282 6.144 16.271 9.786 26.853 9.786 18.775 0 28.106-11.607 28.106-23.099 0-29.926-46.084-17.41-46.084-38.005 0-6.6 5.576-13.085 17.637-13.085 5.803 0 11.834 1.365 16.272 4.892 1.82 1.366 3.527 2.39 5.234 2.39.91 0 1.82-.341 2.617-.91 2.162-1.593 2.162-5.804-1.252-8.534-6.144-4.893-14.45-6.941-22.87-6.941zm44.014 77.375a4.08 4.08 0 0 0 4.097 4.096h44.718c2.617 0 4.665-2.048 4.665-4.779 0-2.617-2.048-4.551-4.665-4.551h-38.915v-26.058h35.843c2.844 0 4.551-1.593 4.551-4.437 0-2.959-1.707-4.438-4.551-4.438h-35.843v-26.057h38.915c2.617 0 4.665-1.935 4.665-4.552 0-2.73-2.048-4.779-4.665-4.779h-44.718a4.08 4.08 0 0 0-4.097 4.097zm122.186-66.224c2.617 0 4.666-1.935 4.666-4.666 0-2.617-2.049-4.665-4.666-4.665h-52c-2.504 0-4.666 2.048-4.666 4.665 0 2.618 2.162 4.666 4.666 4.666h21.05v68.84c0 .911.683 1.48 1.48 1.48h6.94c.797 0 1.48-.569 1.48-1.48v-68.84zm42.536-11.151c-18.662 0-27.537 11.037-27.537 22.188 0 30.609 46.084 17.296 46.084 38.005 0 6.941-6.03 13.882-18.206 13.882-7.965 0-14.679-2.73-20.368-7.624-1.707-1.479-3.527-2.39-5.12-2.39-.91 0-1.821.228-2.617.911-2.162 1.593-2.276 5.803 1.251 8.534 7.283 6.144 16.272 9.786 26.854 9.786 18.775 0 28.105-11.607 28.105-23.099 0-29.926-46.083-17.41-46.083-38.005 0-6.6 5.575-13.085 17.637-13.085 5.803 0 11.833 1.365 16.271 4.892 1.82 1.366 3.527 2.39 5.234 2.39.91 0 1.82-.341 2.617-.91 2.162-1.593 2.162-5.804-1.251-8.534-6.145-4.893-14.451-6.941-22.871-6.941z" aria-label="ASSETS" style="font-weight:300;font-size:113.787px;line-height:1;font-family:&quot;LT Saeada&quot;;-inkscape-font-specification:&quot;LT Saeada Light&quot;;letter-spacing:5.78193px;word-spacing:-.0578194px;fill:none;fill-opacity:.518453;stroke:#999;stroke-width:.952745;stroke-linecap:round;stroke-linejoin:round"/><path id="text10" d="M-587.052 3676.315c0 19.571 12.744 32.43 31.974 32.43 19.117 0 31.747-12.859 31.747-32.43v-44.15a4.857 4.857 0 0 0-4.893-4.892c-2.845 0-5.007 2.162-5.007 4.892v43.922c0 14.224-8.875 23.782-21.847 23.782-13.085 0-22.074-9.558-22.074-23.782v-43.921a4.857 4.857 0 0 0-4.893-4.893c-2.845 0-5.007 2.162-5.007 4.892zm108.646-50.863c-18.662 0-27.537 11.037-27.537 22.189 0 30.608 46.084 17.295 46.084 38.004 0 6.941-6.03 13.882-18.206 13.882-7.965 0-14.679-2.73-20.368-7.623-1.707-1.48-3.527-2.39-5.12-2.39-.91 0-1.821.228-2.617.91-2.162 1.594-2.276 5.804 1.251 8.535 7.283 6.144 16.272 9.785 26.854 9.785 18.775 0 28.105-11.606 28.105-23.099 0-29.926-46.083-17.409-46.083-38.004 0-6.6 5.575-13.086 17.637-13.086 5.803 0 11.833 1.365 16.271 4.893 1.82 1.365 3.527 2.39 5.234 2.39.91 0 1.82-.342 2.617-.91 2.162-1.594 2.162-5.804-1.251-8.535-6.145-4.893-14.451-6.94-22.871-6.94zm44.014 77.375a4.08 4.08 0 0 0 4.096 4.097h44.719c2.617 0 4.665-2.049 4.665-4.78 0-2.617-2.048-4.551-4.665-4.551h-38.916v-26.057h35.843c2.845 0 4.552-1.593 4.552-4.438 0-2.958-1.707-4.438-4.552-4.438h-35.843v-26.057h38.916c2.617 0 4.665-1.934 4.665-4.551 0-2.731-2.048-4.78-4.665-4.78h-44.719a4.08 4.08 0 0 0-4.096 4.097zm117.862 1.935c.91 1.593 2.503 2.503 4.21 2.503.797 0 1.707-.341 2.617-.797 2.276-1.365 3.186-4.324 1.707-6.713l-14.679-25.488c10.469-3.528 15.817-13.086 15.817-22.758 0-12.061-8.307-24.236-25.033-24.236h-27.992c-2.845 0-5.007 2.162-5.007 4.892v73.28c0 .91.683 1.479 1.48 1.479h6.94c.797 0 1.48-.57 1.48-1.48v-29.698h21.733zm-38.46-68.159h22.757c10.469 0 15.59 7.396 15.59 14.792 0 7.51-5.235 14.907-15.59 14.907h-22.757zm93.205 68.841c0 .91.683 1.48 1.48 1.48h6.94c.797 0 1.48-.57 1.48-1.48v-73.279a4.857 4.857 0 0 0-4.893-4.892c-2.845 0-5.007 2.162-5.007 4.892zm28.198 0c0 .91.683 1.48 1.48 1.48h6.94c.797 0 1.48-.57 1.48-1.48v-60.307l45.4 60.08c.683.91 1.48 1.707 3.187 1.707h5.12c.797 0 1.48-.57 1.48-1.48v-73.279a4.857 4.857 0 0 0-4.894-4.892c-2.844 0-5.006 2.162-5.006 4.892v57.69l-44.15-58.486c-1.365-1.934-3.072-4.096-6.03-4.096-3.073 0-5.007 2.162-5.007 4.892zm135.386-68.84c2.617 0 4.665-1.935 4.665-4.666 0-2.617-2.048-4.665-4.665-4.665h-52.001c-2.503 0-4.665 2.048-4.665 4.665s2.162 4.665 4.665 4.665h21.05v68.841c0 .91.683 1.48 1.48 1.48h6.94c.797 0 1.48-.57 1.48-1.48v-68.84zm18.98 66.223a4.08 4.08 0 0 0 4.097 4.097h44.718c2.617 0 4.666-2.049 4.666-4.78 0-2.617-2.049-4.551-4.666-4.551H-69.32v-26.057h35.843c2.845 0 4.552-1.593 4.552-4.438 0-2.958-1.707-4.438-4.552-4.438H-69.32v-26.057h38.915c2.617 0 4.666-1.934 4.666-4.551 0-2.731-2.049-4.78-4.666-4.78h-44.718a4.08 4.08 0 0 0-4.096 4.097zm117.863 1.935c.91 1.593 2.503 2.503 4.21 2.503.796 0 1.707-.341 2.617-.797 2.276-1.365 3.186-4.324 1.707-6.713l-14.679-25.488c10.469-3.528 15.817-13.086 15.817-22.758 0-12.061-8.307-24.236-25.033-24.236H-4.711c-2.845 0-5.007 2.162-5.007 4.892v73.28c0 .91.683 1.479 1.48 1.479h6.94c.797 0 1.48-.57 1.48-1.48v-29.698h21.733Zm-38.46-68.159h22.757c10.469 0 15.59 7.396 15.59 14.792 0 7.51-5.235 14.907-15.59 14.907H.182Zm64.155 68.728c0 .91.682 1.593 1.593 1.593h6.713c.91 0 1.593-.683 1.593-1.593v-33.795h35.843c2.845 0 4.551-1.593 4.551-4.438 0-2.958-1.706-4.438-4.551-4.438H74.236v-26.057h38.915c2.617 0 4.665-1.934 4.665-4.551 0-2.731-2.048-4.78-4.665-4.78H68.433a4.08 4.08 0 0 0-4.096 4.097zm59.375-.456c-.455 1.138 0 2.049 1.024 2.049h7.965c.797 0 1.593-.114 2.048-1.138l7.283-17.182h39.598l7.282 17.182c.341 1.024 1.252 1.138 2.048 1.138h7.965c.91 0 1.48-.91 1.024-2.049l-32.315-74.075c-1.138-2.503-3.414-3.869-5.803-3.869-2.39 0-4.666 1.366-5.803 3.87zm21.961-25.146 16.158-38.347 16.158 38.347zm64.382-12.745c0 24.35 16.613 41.533 40.28 41.533 11.152 0 20.71-3.87 27.651-10.469 3.414-2.73 3.414-6.94 1.138-8.534-.797-.683-1.707-.91-2.617-.91-1.593 0-3.414.91-5.12 2.39-5.235 5.234-12.517 8.42-21.051 8.42-17.865 0-30.381-13.427-30.381-32.43 0-19.002 12.516-32.429 30.38-32.429 8.535 0 15.817 3.186 21.051 8.42 1.707 1.48 3.528 2.39 5.12 2.39.911 0 1.821-.228 2.618-.91 2.276-1.593 2.276-5.804-1.138-8.534-6.94-6.6-16.499-10.469-27.65-10.469-23.668 0-40.28 17.182-40.28 41.532zm84.295 35.843a4.08 4.08 0 0 0 4.097 4.097h44.718c2.617 0 4.665-2.049 4.665-4.78 0-2.617-2.048-4.551-4.665-4.551H304.25v-26.057h35.843c2.844 0 4.551-1.593 4.551-4.438 0-2.958-1.707-4.438-4.551-4.438H304.25v-26.057h38.915c2.617 0 4.665-1.934 4.665-4.551 0-2.731-2.048-4.78-4.665-4.78h-44.718a4.08 4.08 0 0 0-4.097 4.097z" aria-label="USER INTERFACE" style="font-weight:300;font-size:113.787px;line-height:1;font-family:&quot;LT Saeada&quot;;-inkscape-font-specification:&quot;LT Saeada Light&quot;;letter-spacing:5.78193px;word-spacing:-.0578194px;fill:none;fill-opacity:.518453;stroke:#999;stroke-width:.952745;stroke-linecap:round;stroke-linejoin:round"/><path id="text11" d="M-568.732 3800.28c-2.845 0-4.324 2.049-4.324 4.21 0 2.163 1.48 4.325 4.324 4.325h5.12c10.355 0 17.182 5.803 17.182 14.45 0 8.99-6.713 15.02-16.499 15.02-6.03 0-11.606-1.365-17.182-6.258-1.251-1.138-2.844-2.162-4.665-2.162-.569 0-1.252.114-1.934.455-2.39 1.252-3.187 5.348-.114 8.534 6.144 5.917 15.361 8.534 23.895 8.534 15.475 0 26.399-9.785 26.399-23.781 0-7.965-5.235-16.044-13.541-19.23 7.51-3.186 12.175-10.696 12.175-18.092 0-13.086-10.468-22.189-25.26-22.189-7.966 0-16.613 2.39-22.303 7.738-3.186 3.072-2.39 7.168.114 8.42a4.02 4.02 0 0 0 1.934.455c1.707 0 3.186-1.138 4.324-1.934 5.234-4.324 10.582-5.576 15.93-5.576 8.99 0 15.362 5.462 15.362 13.086 0 8.306-6.486 13.996-15.817 13.996zm48.793 41.191a4.08 4.08 0 0 0 4.097 4.097h24.009c23.212 0 39.939-16.613 39.939-39.826 0-23.212-16.727-39.825-39.94-39.825h-24.008a4.08 4.08 0 0 0-4.097 4.096zm9.9-66.223h17.864c17.751 0 30.495 12.63 30.495 30.38 0 17.751-12.744 30.61-30.495 30.61h-17.864z" aria-label="3D" style="font-weight:300;font-size:113.787px;line-height:1;font-family:&quot;LT Saeada&quot;;-inkscape-font-specification:&quot;LT Saeada Light&quot;;letter-spacing:5.78193px;word-spacing:-.0578194px;fill:none;fill-opacity:.518453;stroke:#999;stroke-width:.952745;stroke-linecap:round;stroke-linejoin:round"/><text xml:space="preserve" id="text12" x="-593.31" y="3987.052" style="font-weight:300;font-size:113.787px;line-height:1;font-family:&quot;LT Saeada&quot;;-inkscape-font-specification:&quot;LT Saeada Light&quot;;text-decoration-color:#000;letter-spacing:5.78193px;word-spacing:-.0578194px;fill:none;fill-opacity:.518453;stroke:#999;stroke-width:.952745;stroke-linecap:round;stroke-linejoin:round;stroke-dasharray:none;stroke-dashoffset:0;stroke-opacity:1"><tspan id="tspan12" x="-593.31" y="3987.052" style="stroke-width:.952745;stroke-dasharray:none">GAMES</tspan></text></g></g></svg>