<?xml version="1.0" encoding="UTF-8" standalone="no"?>
<svg
   xml:space="preserve"
   id="svg1"
   width="1169.725"
   height="334.198"
   version="1.1"
   viewBox="0 0 309.49 88.423"
   sodipodi:docname="apps_text.svg"
   inkscape:version="1.3.2 (091e20e, 2023-11-25, custom)"
   xmlns:inkscape="http://www.inkscape.org/namespaces/inkscape"
   xmlns:sodipodi="http://sodipodi.sourceforge.net/DTD/sodipodi-0.dtd"
   xmlns:xlink="http://www.w3.org/1999/xlink"
   xmlns="http://www.w3.org/2000/svg"
   xmlns:svg="http://www.w3.org/2000/svg"><sodipodi:namedview
     id="namedview1"
     pagecolor="#ffffff"
     bordercolor="#999999"
     borderopacity="1"
     inkscape:showpageshadow="2"
     inkscape:pageopacity="0"
     inkscape:pagecheckerboard="0"
     inkscape:deskcolor="#d1d1d1"
     inkscape:zoom="0.37273719"
     inkscape:cx="571.44821"
     inkscape:cy="205.23844"
     inkscape:window-width="1920"
     inkscape:window-height="991"
     inkscape:window-x="-9"
     inkscape:window-y="-9"
     inkscape:window-maximized="1"
     inkscape:current-layer="layer1" /><defs
     id="defs1"><filter
       id="filter2167"
       width="1.0295638"
       height="1.1879135"
       x="-0.014781907"
       y="-0.093956741"
       style="color-interpolation-filters:sRGB"><feGaussianBlur
         id="feGaussianBlur2167"
         stdDeviation="2.393" /></filter><filter
       id="filter362"
       width="1.1398006"
       height="1.6800878"
       x="-0.069900335"
       y="-0.29983792"
       style="color-interpolation-filters:sRGB"><feFlood
         id="feFlood361"
         flood-color="#040404"
         flood-opacity=".71"
         result="flood" /><feGaussianBlur
         id="feGaussianBlur361"
         in="SourceGraphic"
         result="blur"
         stdDeviation="6.192" /><feOffset
         id="feOffset361"
         dx="0"
         dy="0"
         in="blur"
         result="offset" /><feComposite
         id="feComposite361"
         in="flood"
         in2="offset"
         operator="in"
         result="comp1" /><feComposite
         id="feComposite362"
         in="SourceGraphic"
         in2="comp1"
         operator="over"
         result="comp2" /></filter><filter
       id="filter364"
       width="1.1398006"
       height="1.6800878"
       x="-0.069900335"
       y="-0.29983792"
       style="color-interpolation-filters:sRGB"><feFlood
         id="feFlood362"
         flood-color="#040404"
         flood-opacity=".71"
         result="flood" /><feGaussianBlur
         id="feGaussianBlur362"
         in="SourceGraphic"
         result="blur"
         stdDeviation="6.192" /><feOffset
         id="feOffset362"
         dx="0"
         dy="0"
         in="blur"
         result="offset" /><feComposite
         id="feComposite363"
         in="flood"
         in2="offset"
         operator="in"
         result="comp1" /><feComposite
         id="feComposite364"
         in="SourceGraphic"
         in2="comp1"
         operator="over"
         result="comp2" /></filter><filter
       id="filter176"
       width="1.3868129"
       height="1.6258797"
       x="-0.19340645"
       y="-0.31293986"
       style="color-interpolation-filters:sRGB"><feGaussianBlur
         id="feGaussianBlur176"
         stdDeviation="10.242" /></filter><linearGradient
       xlink:href="#linearGradient2120-1"
       id="linearGradient2255"
       x1="1135.492"
       x2="1455.251"
       y1="-189.767"
       y2="-83.107"
       gradientUnits="userSpaceOnUse" /><linearGradient
       id="linearGradient2120-1"><stop
         id="stop2120"
         offset="0"
         style="stop-color:#9b3609;stop-opacity:1" /><stop
         id="stop2121"
         offset="1"
         style="stop-color:#9b3509;stop-opacity:1" /></linearGradient><linearGradient
       xlink:href="#linearGradient2120-1"
       id="linearGradient349"
       x1="1135.492"
       x2="1455.251"
       y1="-189.767"
       y2="-83.107"
       gradientUnits="userSpaceOnUse" /><clipPath
       id="clipPath217"
       clipPathUnits="userSpaceOnUse"><rect
         id="rect238"
         width="314.29"
         height="192.65"
         x="-797.057"
         y="2607.8"
         ry="18.352"
         style="fill:#fff;fill-opacity:1;stroke:none;stroke-width:.460563;stroke-linecap:round;stroke-linejoin:round;stroke-dasharray:1.84226,1.84226" /></clipPath></defs><g
     id="layer1"
     transform="translate(587.327 -3420.707)"><g
       id="g2289"
       style="display:inline"
       transform="translate(873.138 409.853) scale(.06736)"><g
         id="g2262"
         style="filter:url(#filter362)"
         transform="translate(-301.373 615.054)"><g
           id="g2219"
           transform="translate(472.399)"><g
             id="g2210"
             style="fill:#696d19;fill-opacity:.646237;filter:url(#filter2167)"
             transform="matrix(.69394 0 0 .69394 354.411 236.848)"><path
               id="path2204"
               d="M1106.162-163.28c-10.278 0-18.285 8.008-18.285 18.286v24.556c0 10.279 8.006 18.284 18.285 18.284h351.961c10.279 0 18.283-8.005 18.283-18.284v-24.556c0-10.279-8.005-18.285-18.283-18.285z"
               style="opacity:1;fill:#696d19;fill-opacity:.646237;stroke-width:1;stroke-linecap:round;stroke-linejoin:round;stroke-opacity:0" /></g><g
             id="g2218"
             transform="matrix(.69394 0 0 .69394 354.411 229.703)"><path
               id="path2212"
               d="M1106.162-163.28c-10.278 0-18.285 8.008-18.285 18.286v24.556c0 10.279 8.006 18.284 18.285 18.284h351.961c10.279 0 18.283-8.005 18.283-18.284v-24.556c0-10.279-8.005-18.285-18.283-18.285z"
               style="opacity:1;fill:url(#linearGradient349);fill-opacity:1;stroke-width:1;stroke-linecap:round;stroke-linejoin:round;stroke-opacity:0" /></g></g></g><g
         id="g2283"
         style="filter:url(#filter364)"><g
           id="g2169"
           transform="translate(171.026 308.696)"><g
             id="g2158"
             style="fill:#696d19;fill-opacity:.646237;filter:url(#filter2167)"
             transform="matrix(.69394 0 0 .69394 354.411 236.848)"><path
               id="path2156"
               d="M1106.162-163.28c-10.278 0-18.285 8.008-18.285 18.286v24.556c0 10.279 8.006 18.284 18.285 18.284h351.961c10.279 0 18.283-8.005 18.283-18.284v-24.556c0-10.279-8.005-18.285-18.283-18.285z"
               style="opacity:1;fill:#696d19;fill-opacity:.646237;stroke-width:1;stroke-linecap:round;stroke-linejoin:round;stroke-opacity:0" /></g><g
             id="g2154"
             transform="matrix(.69394 0 0 .69394 354.411 229.703)"><path
               id="path2127"
               d="M1106.162-163.28c-10.278 0-18.285 8.008-18.285 18.286v24.556c0 10.279 8.006 18.284 18.285 18.284h351.961c10.279 0 18.283-8.005 18.283-18.284v-24.556c0-10.279-8.005-18.285-18.283-18.285z"
               style="opacity:1;fill:url(#linearGradient2255);fill-opacity:1;stroke-width:1;stroke-linecap:round;stroke-linejoin:round;stroke-opacity:0" /></g></g></g></g><path
       id="path96"
       d="M1467.285 94.482c-6.966.016-13.977-.031-21.033.024a5.823 5.823 0 0 0-.209.006c-8.667.379-16.518 5.337-20.686 12.877-2.48 4.35-3.388 9.208-3.189 13.853l-.01-.25v19.727a5.823 5.823 0 0 0 .742 2.844c.965 1.723 3.224 3.093 4.656 3.378 1.433.285 2.138.13 2.301.123l-.248.006h8.9a5.823 5.823 0 0 0 2.844-.742c1.724-.964 3.094-3.223 3.38-4.656.284-1.433.13-2.138.122-2.3l.01.261c.016-6.85-.03-13.652.024-20.406.047-.697.941-1.777 1.56-1.926a5.823 5.823 0 0 0 .028-.008c.567-.14 2.294-.015 4.906-.107h17.016a5.823 5.823 0 0 0 2.843-.743c1.724-.964 3.094-3.223 3.38-4.656.284-1.433.13-2.14.122-2.303l.01.25v-8.9a5.823 5.823 0 0 0-.742-2.844c-.965-1.723-3.223-3.094-4.656-3.379-1.433-.285-2.138-.13-2.3-.123zm46.7 0c-3.327.363-3.608 1.268-4.647 2.235a5.823 5.823 0 0 0-1.705 4.117v10a5.823 5.823 0 0 0 .742 2.844c.965 1.723 3.223 3.094 4.656 3.379 1.433.285 2.138.13 2.301.123l-.262.006c6.85.016 13.651-.03 20.405.023.7.047 1.778.936 1.93 1.563a5.823 5.823 0 0 0 0 .006c.149.617.02 2.383.112 5.027v16.914a5.823 5.823 0 0 0 .743 2.844c.964 1.723 3.223 3.094 4.656 3.379 1.433.285 2.138.13 2.3.123l-.247.006h8.9a5.823 5.823 0 0 0 2.844-.742c1.723-.965 3.094-3.224 3.379-4.657.285-1.433.13-2.138.123-2.3l.01.232c-.018-6.97.036-13.993-.027-21.067a5.823 5.823 0 0 0-.01-.207c-.387-8.657-5.346-16.495-12.877-20.654-4.348-2.477-9.202-3.387-13.85-3.187l.25-.006zm-85.471 85.471c-3.326.362-3.608 1.268-4.647 2.235a5.823 5.823 0 0 0-1.705 4.13c.017 7.342-.034 14.73.025 22.164a5.823 5.823 0 0 0 .01.215c.39 8.656 5.348 16.493 12.879 20.653 4.302 2.448 9.11 3.378 13.738 3.187l-.24.006h19.828a5.823 5.823 0 0 0 2.844-.742c1.723-.965 3.094-3.223 3.379-4.656.285-1.433.13-2.14.123-2.303l.01.25v-8.9a5.823 5.823 0 0 0-.742-2.844c-.965-1.724-3.224-3.094-4.657-3.38-1.432-.284-2.137-.13-2.3-.122l.263-.006c-6.857-.018-13.664.032-20.418-.026-.692-.045-1.796-.978-1.931-1.609v-.002c-.153-.72.01-2.453-.106-5.219l.01.239v-16.918a5.823 5.823 0 0 0-.742-2.844c-.964-1.723-3.223-3.094-4.656-3.379-1.433-.285-2.138-.13-2.301-.123l.248-.006zm115.357 0c-3.326.361-3.611 1.267-4.646 2.235a5.823 5.823 0 0 0-1.705 4.103c-.018 7.22.032 14.39-.025 21.512-.046.69-.94 1.771-1.563 1.922a5.823 5.823 0 0 0 0 .002c-.62.15-2.384.02-5.027.113h-16.916a5.823 5.823 0 0 0-2.844.742c-1.723.965-3.094 3.223-3.379 4.656-.285 1.433-.13 2.14-.123 2.303l-.01-.25v8.9a5.823 5.823 0 0 0 .742 2.844c.965 1.724 3.224 3.094 4.656 3.38 1.433.284 2.138.13 2.301.122l-.232.006c6.97-.018 13.994.037 21.068-.027a5.823 5.823 0 0 0 .203-.006c8.95-.395 17.008-5.678 21.047-13.606 2.243-4.239 2.977-8.855 2.799-13.209l.01.239v-19.63a5.823 5.823 0 0 0-.742-2.843c-.965-1.723-3.224-3.094-4.656-3.379-1.433-.285-2.138-.13-2.301-.123l.248-.006z"
       style="color:#000;fill:#fff;stroke-width:5;stroke-linecap:round;stroke-linejoin:round;stroke-dasharray:none"
       transform="matrix(.92339 0 0 .92339 114.241 12.527)" /><g
       id="g177"
       style="stroke-width:1.00038;stroke-dasharray:none"
       transform="matrix(1.0496 0 0 1.0496 32.753 -122.788)"><path
         id="text7"
         d="M-590.124 3455.946c-.455 1.138 0 2.048 1.024 2.048h7.965c.797 0 1.593-.114 2.048-1.138l7.283-17.182h39.598l7.282 17.182c.341 1.024 1.252 1.138 2.048 1.138h7.965c.91 0 1.48-.91 1.024-2.048l-32.315-74.075c-1.138-2.504-3.414-3.869-5.803-3.869-2.39 0-4.666 1.365-5.804 3.869zm21.96-25.147 16.159-38.346 16.157 38.346zm69.503 25.716c0 .91.683 1.48 1.48 1.48h6.94c.797 0 1.48-.57 1.48-1.48v-25.147h20.71c18.66 0 27.877-13.313 27.877-26.512 0-13.2-9.217-26.513-27.878-26.513h-25.602c-2.845 0-5.007 2.162-5.007 4.893zm9.9-68.841h20.368c12.403 0 18.433 8.534 18.433 17.068 0 8.648-6.144 17.182-18.433 17.182h-20.368zm63.7 68.841c0 .91.682 1.48 1.479 1.48h6.94c.797 0 1.48-.57 1.48-1.48v-25.147h20.71c18.66 0 27.877-13.313 27.877-26.512 0-13.2-9.217-26.513-27.878-26.513h-25.602c-2.845 0-5.006 2.162-5.006 4.893zm9.899-68.841h20.368c12.403 0 18.433 8.534 18.433 17.068 0 8.648-6.144 17.182-18.433 17.182h-20.368zm90.326-11.151c-18.661 0-27.537 11.037-27.537 22.188 0 30.609 46.084 17.296 46.084 38.005 0 6.941-6.03 13.882-18.206 13.882-7.965 0-14.678-2.73-20.368-7.624-1.707-1.479-3.527-2.39-5.12-2.39-.91 0-1.82.228-2.617.911-2.162 1.593-2.276 5.803 1.251 8.534 7.283 6.145 16.272 9.786 26.854 9.786 18.775 0 28.105-11.606 28.105-23.099 0-29.926-46.083-17.41-46.083-38.005 0-6.6 5.575-13.085 17.637-13.085 5.803 0 11.834 1.365 16.271 4.893 1.82 1.365 3.528 2.39 5.234 2.39.91 0 1.821-.342 2.618-.911 2.162-1.593 2.162-5.803-1.252-8.534-6.145-4.893-14.451-6.941-22.871-6.941z"
         aria-label="APPS"
         style="font-weight:300;font-size:113.787px;line-height:1;font-family:&quot;LT Saeada&quot;;-inkscape-font-specification:&quot;LT Saeada Light&quot;;letter-spacing:5.78193px;word-spacing:-.0578194px;fill:none;fill-opacity:.518453;stroke:#999;stroke-width:.952745;stroke-linecap:round;stroke-linejoin:round" /></g></g></svg>
