<?xml version="1.0" encoding="UTF-8" standalone="no"?>
<svg
   xml:space="preserve"
   id="svg1"
   width="375.47202"
   height="334.21555"
   version="1.1"
   viewBox="0 0 99.343628 88.427643"
   sodipodi:docname="ui_text.svg"
   inkscape:version="1.3.2 (091e20e, 2023-11-25, custom)"
   xmlns:inkscape="http://www.inkscape.org/namespaces/inkscape"
   xmlns:sodipodi="http://sodipodi.sourceforge.net/DTD/sodipodi-0.dtd"
   xmlns:xlink="http://www.w3.org/1999/xlink"
   xmlns="http://www.w3.org/2000/svg"
   xmlns:svg="http://www.w3.org/2000/svg"><sodipodi:namedview
     id="namedview1"
     pagecolor="#ffffff"
     bordercolor="#999999"
     borderopacity="1"
     inkscape:showpageshadow="2"
     inkscape:pageopacity="0"
     inkscape:pagecheckerboard="0"
     inkscape:deskcolor="#d1d1d1"
     inkscape:zoom="0.93954251"
     inkscape:cx="221.38434"
     inkscape:cy="249.05738"
     inkscape:window-width="1920"
     inkscape:window-height="991"
     inkscape:window-x="-9"
     inkscape:window-y="-9"
     inkscape:window-maximized="1"
     inkscape:current-layer="g177" /><defs
     id="defs1"><filter
       id="filter2167"
       width="1.0295638"
       height="1.1879135"
       x="-0.014781907"
       y="-0.093956741"
       style="color-interpolation-filters:sRGB"><feGaussianBlur
         id="feGaussianBlur2167"
         stdDeviation="2.393" /></filter><filter
       id="filter362"
       width="1.1398006"
       height="1.6800878"
       x="-0.069900335"
       y="-0.29983792"
       style="color-interpolation-filters:sRGB"><feFlood
         id="feFlood361"
         flood-color="#040404"
         flood-opacity=".71"
         result="flood" /><feGaussianBlur
         id="feGaussianBlur361"
         in="SourceGraphic"
         result="blur"
         stdDeviation="6.192" /><feOffset
         id="feOffset361"
         dx="0"
         dy="0"
         in="blur"
         result="offset" /><feComposite
         id="feComposite361"
         in="flood"
         in2="offset"
         operator="in"
         result="comp1" /><feComposite
         id="feComposite362"
         in="SourceGraphic"
         in2="comp1"
         operator="over"
         result="comp2" /></filter><filter
       id="filter364"
       width="1.1398006"
       height="1.6800878"
       x="-0.069900335"
       y="-0.29983792"
       style="color-interpolation-filters:sRGB"><feFlood
         id="feFlood362"
         flood-color="#040404"
         flood-opacity=".71"
         result="flood" /><feGaussianBlur
         id="feGaussianBlur362"
         in="SourceGraphic"
         result="blur"
         stdDeviation="6.192" /><feOffset
         id="feOffset362"
         dx="0"
         dy="0"
         in="blur"
         result="offset" /><feComposite
         id="feComposite363"
         in="flood"
         in2="offset"
         operator="in"
         result="comp1" /><feComposite
         id="feComposite364"
         in="SourceGraphic"
         in2="comp1"
         operator="over"
         result="comp2" /></filter><filter
       id="filter176"
       width="1.3868129"
       height="1.6258796"
       x="-0.19340645"
       y="-0.31293985"
       style="color-interpolation-filters:sRGB"><feGaussianBlur
         id="feGaussianBlur176"
         stdDeviation="10.242" /></filter><linearGradient
       xlink:href="#linearGradient2120-1"
       id="linearGradient2255"
       x1="1135.4919"
       x2="1455.251"
       y1="-189.767"
       y2="-83.107002"
       gradientUnits="userSpaceOnUse" /><linearGradient
       id="linearGradient2120-1"><stop
         id="stop2120"
         offset="0"
         style="stop-color:#9b3609;stop-opacity:1" /><stop
         id="stop2121"
         offset="1"
         style="stop-color:#9b3509;stop-opacity:1" /></linearGradient><linearGradient
       xlink:href="#linearGradient2120-1"
       id="linearGradient349"
       x1="1135.4919"
       x2="1455.251"
       y1="-189.767"
       y2="-83.107002"
       gradientUnits="userSpaceOnUse" /><clipPath
       id="clipPath217"
       clipPathUnits="userSpaceOnUse"><rect
         id="rect238"
         width="314.29001"
         height="192.64999"
         x="-797.05701"
         y="2607.8"
         ry="18.351999"
         style="fill:#ffffff;fill-opacity:1;stroke:none;stroke-width:0.460563;stroke-linecap:round;stroke-linejoin:round;stroke-dasharray:1.84226, 1.84226" /></clipPath></defs><g
     id="layer1"
     transform="translate(583.91678,-3681.983)"><g
       id="g2289"
       style="display:inline"
       transform="matrix(0.06736,0,0,0.06736,873.138,409.853)"><g
         id="g2262"
         style="filter:url(#filter362)"
         transform="translate(-301.373,615.054)"><g
           id="g2219"
           transform="translate(472.399)"><g
             id="g2210"
             style="fill:#696d19;fill-opacity:0.646237;filter:url(#filter2167)"
             transform="matrix(0.69394,0,0,0.69394,354.411,236.848)"><path
               id="path2204"
               d="m 1106.162,-163.28 c -10.278,0 -18.285,8.008 -18.285,18.286 v 24.556 c 0,10.279 8.006,18.284 18.285,18.284 h 351.961 c 10.279,0 18.283,-8.005 18.283,-18.284 v -24.556 c 0,-10.279 -8.005,-18.285 -18.283,-18.285 z"
               style="opacity:1;fill:#696d19;fill-opacity:0.646237;stroke-width:1;stroke-linecap:round;stroke-linejoin:round;stroke-opacity:0" /></g><g
             id="g2218"
             transform="matrix(0.69394,0,0,0.69394,354.411,229.703)"><path
               id="path2212"
               d="m 1106.162,-163.28 c -10.278,0 -18.285,8.008 -18.285,18.286 v 24.556 c 0,10.279 8.006,18.284 18.285,18.284 h 351.961 c 10.279,0 18.283,-8.005 18.283,-18.284 v -24.556 c 0,-10.279 -8.005,-18.285 -18.283,-18.285 z"
               style="opacity:1;fill:url(#linearGradient349);fill-opacity:1;stroke-width:1;stroke-linecap:round;stroke-linejoin:round;stroke-opacity:0" /></g></g></g><g
         id="g2283"
         style="filter:url(#filter364)"><g
           id="g2169"
           transform="translate(171.026,308.696)"><g
             id="g2158"
             style="fill:#696d19;fill-opacity:0.646237;filter:url(#filter2167)"
             transform="matrix(0.69394,0,0,0.69394,354.411,236.848)"><path
               id="path2156"
               d="m 1106.162,-163.28 c -10.278,0 -18.285,8.008 -18.285,18.286 v 24.556 c 0,10.279 8.006,18.284 18.285,18.284 h 351.961 c 10.279,0 18.283,-8.005 18.283,-18.284 v -24.556 c 0,-10.279 -8.005,-18.285 -18.283,-18.285 z"
               style="opacity:1;fill:#696d19;fill-opacity:0.646237;stroke-width:1;stroke-linecap:round;stroke-linejoin:round;stroke-opacity:0" /></g><g
             id="g2154"
             transform="matrix(0.69394,0,0,0.69394,354.411,229.703)"><path
               id="path2127"
               d="m 1106.162,-163.28 c -10.278,0 -18.285,8.008 -18.285,18.286 v 24.556 c 0,10.279 8.006,18.284 18.285,18.284 h 351.961 c 10.279,0 18.283,-8.005 18.283,-18.284 v -24.556 c 0,-10.279 -8.005,-18.285 -18.283,-18.285 z"
               style="opacity:1;fill:url(#linearGradient2255);fill-opacity:1;stroke-width:1;stroke-linecap:round;stroke-linejoin:round;stroke-opacity:0" /></g></g></g></g><path
       id="path96"
       d="m 1467.285,94.482 c -6.966,0.016 -13.977,-0.031 -21.033,0.024 a 5.823,5.823 0 0 0 -0.209,0.006 c -8.667,0.379 -16.518,5.337 -20.686,12.877 -2.48,4.35 -3.388,9.208 -3.189,13.853 l -0.01,-0.25 v 19.727 a 5.823,5.823 0 0 0 0.742,2.844 c 0.965,1.723 3.224,3.093 4.656,3.378 1.433,0.285 2.138,0.13 2.301,0.123 l -0.248,0.006 h 8.9 a 5.823,5.823 0 0 0 2.844,-0.742 c 1.724,-0.964 3.094,-3.223 3.38,-4.656 0.284,-1.433 0.13,-2.138 0.122,-2.3 l 0.01,0.261 c 0.016,-6.85 -0.03,-13.652 0.024,-20.406 0.047,-0.697 0.941,-1.777 1.56,-1.926 a 5.823,5.823 0 0 0 0.028,-0.008 c 0.567,-0.14 2.294,-0.015 4.906,-0.107 h 17.016 a 5.823,5.823 0 0 0 2.843,-0.743 c 1.724,-0.964 3.094,-3.223 3.38,-4.656 0.284,-1.433 0.13,-2.14 0.122,-2.303 l 0.01,0.25 v -8.9 a 5.823,5.823 0 0 0 -0.742,-2.844 c -0.965,-1.723 -3.223,-3.094 -4.656,-3.379 -1.433,-0.285 -2.138,-0.13 -2.3,-0.123 z m 46.7,0 c -3.327,0.363 -3.608,1.268 -4.647,2.235 a 5.823,5.823 0 0 0 -1.705,4.117 v 10 a 5.823,5.823 0 0 0 0.742,2.844 c 0.965,1.723 3.223,3.094 4.656,3.379 1.433,0.285 2.138,0.13 2.301,0.123 l -0.262,0.006 c 6.85,0.016 13.651,-0.03 20.405,0.023 0.7,0.047 1.778,0.936 1.93,1.563 a 5.823,5.823 0 0 0 0,0.006 c 0.149,0.617 0.02,2.383 0.112,5.027 v 16.914 a 5.823,5.823 0 0 0 0.743,2.844 c 0.964,1.723 3.223,3.094 4.656,3.379 1.433,0.285 2.138,0.13 2.3,0.123 l -0.247,0.006 h 8.9 a 5.823,5.823 0 0 0 2.844,-0.742 c 1.723,-0.965 3.094,-3.224 3.379,-4.657 0.285,-1.433 0.13,-2.138 0.123,-2.3 l 0.01,0.232 c -0.018,-6.97 0.036,-13.993 -0.027,-21.067 a 5.823,5.823 0 0 0 -0.01,-0.207 c -0.387,-8.657 -5.346,-16.495 -12.877,-20.654 -4.348,-2.477 -9.202,-3.387 -13.85,-3.187 l 0.25,-0.006 z m -85.471,85.471 c -3.326,0.362 -3.608,1.268 -4.647,2.235 a 5.823,5.823 0 0 0 -1.705,4.13 c 0.017,7.342 -0.034,14.73 0.025,22.164 a 5.823,5.823 0 0 0 0.01,0.215 c 0.39,8.656 5.348,16.493 12.879,20.653 4.302,2.448 9.11,3.378 13.738,3.187 l -0.24,0.006 h 19.828 a 5.823,5.823 0 0 0 2.844,-0.742 c 1.723,-0.965 3.094,-3.223 3.379,-4.656 0.285,-1.433 0.13,-2.14 0.123,-2.303 l 0.01,0.25 v -8.9 a 5.823,5.823 0 0 0 -0.742,-2.844 c -0.965,-1.724 -3.224,-3.094 -4.657,-3.38 -1.432,-0.284 -2.137,-0.13 -2.3,-0.122 l 0.263,-0.006 c -6.857,-0.018 -13.664,0.032 -20.418,-0.026 -0.692,-0.045 -1.796,-0.978 -1.931,-1.609 v -0.002 c -0.153,-0.72 0.01,-2.453 -0.106,-5.219 l 0.01,0.239 v -16.918 a 5.823,5.823 0 0 0 -0.742,-2.844 c -0.964,-1.723 -3.223,-3.094 -4.656,-3.379 -1.433,-0.285 -2.138,-0.13 -2.301,-0.123 l 0.248,-0.006 z m 115.357,0 c -3.326,0.361 -3.611,1.267 -4.646,2.235 a 5.823,5.823 0 0 0 -1.705,4.103 c -0.018,7.22 0.032,14.39 -0.025,21.512 -0.046,0.69 -0.94,1.771 -1.563,1.922 a 5.823,5.823 0 0 0 0,0.002 c -0.62,0.15 -2.384,0.02 -5.027,0.113 h -16.916 a 5.823,5.823 0 0 0 -2.844,0.742 c -1.723,0.965 -3.094,3.223 -3.379,4.656 -0.285,1.433 -0.13,2.14 -0.123,2.303 l -0.01,-0.25 v 8.9 a 5.823,5.823 0 0 0 0.742,2.844 c 0.965,1.724 3.224,3.094 4.656,3.38 1.433,0.284 2.138,0.13 2.301,0.122 l -0.232,0.006 c 6.97,-0.018 13.994,0.037 21.068,-0.027 a 5.823,5.823 0 0 0 0.203,-0.006 c 8.95,-0.395 17.008,-5.678 21.047,-13.606 2.243,-4.239 2.977,-8.855 2.799,-13.209 l 0.01,0.239 v -19.63 a 5.823,5.823 0 0 0 -0.742,-2.843 c -0.965,-1.723 -3.224,-3.094 -4.656,-3.379 -1.433,-0.285 -2.138,-0.13 -2.301,-0.123 l 0.248,-0.006 z"
       style="color:#000000;fill:#ffffff;stroke-width:5;stroke-linecap:round;stroke-linejoin:round;stroke-dasharray:none"
       transform="matrix(0.92339,0,0,0.92339,114.241,12.527)" /><g
       id="g177"
       style="stroke-width:1.00038;stroke-dasharray:none"
       transform="matrix(1.0496,0,0,1.0496,32.753,-122.788)"><path
         style="font-weight:300;font-size:113.787px;line-height:1;font-family:'LT Saeada';-inkscape-font-specification:'LT Saeada Light';letter-spacing:5.78193px;word-spacing:-0.0578194px;fill:none;fill-opacity:0.518453;stroke:#999999;stroke-width:0.952745;stroke-linecap:round;stroke-linejoin:round"
         d="m -503.25584,3705.444 c 0,0.91 0.683,1.48 1.48,1.48 h 6.94 c 0.797,0 1.48,-0.57 1.48,-1.48 v -73.279 a 4.857,4.857 0 0 0 -4.893,-4.892 c -2.845,0 -5.007,2.162 -5.007,4.892 z"
         id="path5" /><path
         style="font-weight:300;font-size:113.787px;line-height:1;font-family:'LT Saeada';-inkscape-font-specification:'LT Saeada Light';letter-spacing:5.78193px;word-spacing:-0.0578194px;fill:none;fill-opacity:0.518453;stroke:#999999;stroke-width:0.952745;stroke-linecap:round;stroke-linejoin:round"
         d="m -587.052,3676.315 c 0,19.571 12.744,32.43 31.974,32.43 19.117,0 31.747,-12.859 31.747,-32.43 v -44.15 a 4.857,4.857 0 0 0 -4.893,-4.892 c -2.845,0 -5.007,2.162 -5.007,4.892 v 43.922 c 0,14.224 -8.875,23.782 -21.847,23.782 -13.085,0 -22.074,-9.558 -22.074,-23.782 v -43.921 a 4.857,4.857 0 0 0 -4.893,-4.893 c -2.845,0 -5.007,2.162 -5.007,4.892 z"
         id="text10" /></g></g></svg>
