<svg xmlns="http://www.w3.org/2000/svg" xmlns:xlink="http://www.w3.org/1999/xlink" xml:space="preserve" id="svg1" width="1639.13" height="298.914" version="1.1" viewBox="0 0 433.686 79.088"><defs id="defs1"><filter id="filter2167" width="1.028" height="1.147" x="-.014" y="-.073" style="color-interpolation-filters:sRGB"><feGaussianBlur id="feGaussianBlur2167" stdDeviation="2.393"/></filter><filter id="filter362" width="1.044" height="1.108" x="-.036" y="-.055" style="color-interpolation-filters:sRGB"><feFlood id="feFlood361" flood-color="#040404" flood-opacity=".71" result="flood"/><feGaussianBlur id="feGaussianBlur361" in="SourceGraphic" result="blur" stdDeviation="6.192"/><feOffset id="feOffset361" dx="0" dy="0" in="blur" result="offset"/><feComposite id="feComposite361" in="flood" in2="offset" operator="in" result="comp1"/><feComposite id="feComposite362" in="SourceGraphic" in2="comp1" operator="over" result="comp2"/></filter><filter id="filter364" width="1.044" height="1.108" x="-.036" y="-.055" style="color-interpolation-filters:sRGB"><feFlood id="feFlood362" flood-color="#040404" flood-opacity=".71" result="flood"/><feGaussianBlur id="feGaussianBlur362" in="SourceGraphic" result="blur" stdDeviation="6.192"/><feOffset id="feOffset362" dx="0" dy="0" in="blur" result="offset"/><feComposite id="feComposite363" in="flood" in2="offset" operator="in" result="comp1"/><feComposite id="feComposite364" in="SourceGraphic" in2="comp1" operator="over" result="comp2"/></filter><filter id="filter176" width="1.387" height="1.626" x="-.193" y="-.313" style="color-interpolation-filters:sRGB"><feGaussianBlur id="feGaussianBlur176" stdDeviation="10.242"/></filter><linearGradient xlink:href="#linearGradient2120-1" id="linearGradient2255" x1="1135.492" x2="1455.251" y1="-189.767" y2="-83.107" gradientUnits="userSpaceOnUse"/><linearGradient id="linearGradient2120-1"><stop id="stop2120" offset="0" style="stop-color:#9b3609;stop-opacity:1"/><stop id="stop2121" offset="1" style="stop-color:#9b3509;stop-opacity:1"/></linearGradient><linearGradient xlink:href="#linearGradient2120-1" id="linearGradient349" x1="1135.492" x2="1455.251" y1="-189.767" y2="-83.107" gradientUnits="userSpaceOnUse"/><clipPath id="clipPath217" clipPathUnits="userSpaceOnUse"><rect id="rect238" width="314.29" height="192.65" x="-797.057" y="2607.8" ry="18.352" style="fill:#fff;fill-opacity:1;stroke:none;stroke-width:.460563;stroke-linecap:round;stroke-linejoin:round;stroke-dasharray:1.84226,1.84226"/></clipPath></defs><g id="layer1" transform="translate(597.29 -3205.354)"><g id="g2289" style="display:inline" transform="translate(873.138 409.853) scale(.06736)"><g id="g2262" style="filter:url(#filter362)" transform="translate(-301.373 615.054)"><g id="g2219" transform="translate(472.399)"><g id="g2210" style="fill:#696d19;fill-opacity:.646237;filter:url(#filter2167)" transform="translate(354.411 236.848) scale(.69394)"><path id="path2204" d="M1106.162-163.28c-10.278 0-18.285 8.008-18.285 18.286v24.556c0 10.279 8.006 18.284 18.285 18.284h351.961c10.279 0 18.283-8.005 18.283-18.284v-24.556c0-10.279-8.005-18.285-18.283-18.285z" style="opacity:1;fill:#696d19;fill-opacity:.646237;stroke-width:1;stroke-linecap:round;stroke-linejoin:round;stroke-opacity:0"/></g><g id="g2218" transform="translate(354.411 229.703) scale(.69394)"><path id="path2212" d="M1106.162-163.28c-10.278 0-18.285 8.008-18.285 18.286v24.556c0 10.279 8.006 18.284 18.285 18.284h351.961c10.279 0 18.283-8.005 18.283-18.284v-24.556c0-10.279-8.005-18.285-18.283-18.285z" style="opacity:1;fill:url(#linearGradient349);fill-opacity:1;stroke-width:1;stroke-linecap:round;stroke-linejoin:round;stroke-opacity:0"/></g></g></g><g id="g2283" style="filter:url(#filter364)"><g id="g2169" transform="translate(171.026 308.696)"><g id="g2158" style="fill:#696d19;fill-opacity:.646237;filter:url(#filter2167)" transform="translate(354.411 236.848) scale(.69394)"><path id="path2156" d="M1106.162-163.28c-10.278 0-18.285 8.008-18.285 18.286v24.556c0 10.279 8.006 18.284 18.285 18.284h351.961c10.279 0 18.283-8.005 18.283-18.284v-24.556c0-10.279-8.005-18.285-18.283-18.285z" style="opacity:1;fill:#696d19;fill-opacity:.646237;stroke-width:1;stroke-linecap:round;stroke-linejoin:round;stroke-opacity:0"/></g><g id="g2154" transform="translate(354.411 229.703) scale(.69394)"><path id="path2127" d="M1106.162-163.28c-10.278 0-18.285 8.008-18.285 18.286v24.556c0 10.279 8.006 18.284 18.285 18.284h351.961c10.279 0 18.283-8.005 18.283-18.284v-24.556c0-10.279-8.005-18.285-18.283-18.285z" style="opacity:1;fill:url(#linearGradient2255);fill-opacity:1;stroke-width:1;stroke-linecap:round;stroke-linejoin:round;stroke-opacity:0"/></g></g></g></g><path id="path96" d="M1467.285 94.482c-6.966.016-13.977-.031-21.033.024a5.823 5.823 0 0 0-.209.006c-8.667.379-16.518 5.337-20.686 12.877-2.48 4.35-3.388 9.208-3.189 13.853l-.01-.25v19.727a5.823 5.823 0 0 0 .742 2.844c.965 1.723 3.224 3.093 4.656 3.378 1.433.285 2.138.13 2.301.123l-.248.006h8.9a5.823 5.823 0 0 0 2.844-.742c1.724-.964 3.094-3.223 3.38-4.656.284-1.433.13-2.138.122-2.3l.01.261c.016-6.85-.03-13.652.024-20.406.047-.697.941-1.777 1.56-1.926a5.823 5.823 0 0 0 .028-.008c.567-.14 2.294-.015 4.906-.107h17.016a5.823 5.823 0 0 0 2.843-.743c1.724-.964 3.094-3.223 3.38-4.656.284-1.433.13-2.14.122-2.303l.01.25v-8.9a5.823 5.823 0 0 0-.742-2.844c-.965-1.723-3.223-3.094-4.656-3.379-1.433-.285-2.138-.13-2.3-.123zm46.7 0c-3.327.363-3.608 1.268-4.647 2.235a5.823 5.823 0 0 0-1.705 4.117v10a5.823 5.823 0 0 0 .742 2.844c.965 1.723 3.223 3.094 4.656 3.379 1.433.285 2.138.13 2.301.123l-.262.006c6.85.016 13.651-.03 20.405.023.7.047 1.778.936 1.93 1.563a5.823 5.823 0 0 0 0 .006c.149.617.02 2.383.112 5.027v16.914a5.823 5.823 0 0 0 .743 2.844c.964 1.723 3.223 3.094 4.656 3.379 1.433.285 2.138.13 2.3.123l-.247.006h8.9a5.823 5.823 0 0 0 2.844-.742c1.723-.965 3.094-3.224 3.379-4.657.285-1.433.13-2.138.123-2.3l.01.232c-.018-6.97.036-13.993-.027-21.067a5.823 5.823 0 0 0-.01-.207c-.387-8.657-5.346-16.495-12.877-20.654-4.348-2.477-9.202-3.387-13.85-3.187l.25-.006zm-85.471 85.471c-3.326.362-3.608 1.268-4.647 2.235a5.823 5.823 0 0 0-1.705 4.13c.017 7.342-.034 14.73.025 22.164a5.823 5.823 0 0 0 .01.215c.39 8.656 5.348 16.493 12.879 20.653 4.302 2.448 9.11 3.378 13.738 3.187l-.24.006h19.828a5.823 5.823 0 0 0 2.844-.742c1.723-.965 3.094-3.223 3.379-4.656.285-1.433.13-2.14.123-2.303l.01.25v-8.9a5.823 5.823 0 0 0-.742-2.844c-.965-1.724-3.224-3.094-4.657-3.38-1.432-.284-2.137-.13-2.3-.122l.263-.006c-6.857-.018-13.664.032-20.418-.026-.692-.045-1.796-.978-1.931-1.609v-.002c-.153-.72.01-2.453-.106-5.219l.01.239v-16.918a5.823 5.823 0 0 0-.742-2.844c-.964-1.723-3.223-3.094-4.656-3.379-1.433-.285-2.138-.13-2.301-.123l.248-.006zm115.357 0c-3.326.361-3.611 1.267-4.646 2.235a5.823 5.823 0 0 0-1.705 4.103c-.018 7.22.032 14.39-.025 21.512-.046.69-.94 1.771-1.563 1.922a5.823 5.823 0 0 0 0 .002c-.62.15-2.384.02-5.027.113h-16.916a5.823 5.823 0 0 0-2.844.742c-1.723.965-3.094 3.223-3.379 4.656-.285 1.433-.13 2.14-.123 2.303l-.01-.25v8.9a5.823 5.823 0 0 0 .742 2.844c.965 1.724 3.224 3.094 4.656 3.38 1.433.284 2.138.13 2.301.122l-.232.006c6.97-.018 13.994.037 21.068-.027a5.823 5.823 0 0 0 .203-.006c8.95-.395 17.008-5.678 21.047-13.606 2.243-4.239 2.977-8.855 2.799-13.209l.01.239v-19.63a5.823 5.823 0 0 0-.742-2.843c-.965-1.723-3.224-3.094-4.656-3.379-1.433-.285-2.138-.13-2.301-.123l.248-.006z" style="color:#000;fill:#fff;stroke-width:5;stroke-linecap:round;stroke-linejoin:round;stroke-dasharray:none" transform="translate(114.241 12.527) scale(.92339)"/><g id="g177" transform="translate(32.753 -122.788) scale(1.0496)"><rect id="rect80" width="314.29" height="192.65" x="-797.057" y="2607.8" ry="18.352" style="fill:#fff;fill-opacity:1;stroke:none;stroke-width:.460563;stroke-linecap:round;stroke-linejoin:round;stroke-dasharray:1.84226,1.84226"/><text xml:space="preserve" id="text101" x="-757.8" y="2408.189" style="font-size:16.1887px;line-height:1;font-family:&quot;LT Saeada&quot;;-inkscape-font-specification:&quot;LT Saeada&quot;;text-align:start;text-decoration-color:#000;letter-spacing:.822609px;word-spacing:-.00822609px;text-anchor:start;white-space:pre;inline-size:136.86;fill:#464646;fill-opacity:1;stroke-width:1.55454;stroke-linecap:round;stroke-linejoin:round;-inkscape-stroke:none" transform="translate(164.854 77.835) scale(1.0693)"><tspan id="tspan2" x="-757.8" y="2408.189"><tspan id="tspan1" dx="0 0 0 0 0 0 0 0.0082253153 -0.0082231164 0 0 0 0.0082212621" style="font-weight:300;-inkscape-font-specification:&quot;LT Saeada Light&quot;">Minimal logo </tspan></tspan><tspan id="tspan4" x="-757.8" y="2424.377"><tspan id="tspan3" dx="0 0 0 0 0 0 0.0082269842 -0.0082269311 0 0 0.0082222158 -0.0082269311 0 0 0 0.0082298452" style="font-weight:300;-inkscape-font-specification:&quot;LT Saeada Light&quot;">design for home </tspan></tspan><tspan id="tspan6" x="-757.8" y="2440.566"><tspan id="tspan5" dx="0 0 0 0 0 0.0082260305 -0.0082269311" style="font-weight:300;-inkscape-font-specification:&quot;LT Saeada Light&quot;">decor business</tspan></tspan></text><rect id="rect116" width="127.094" height="78.548" x="-785.411" y="2618.974" ry="13.55" style="fill:#414141;fill-opacity:1;stroke:none;stroke-width:.499999;stroke-linecap:round;stroke-linejoin:round;stroke-dasharray:2,2"/><text xml:space="preserve" id="text174" x="-695.998" y="2408.189" style="font-size:16.1887px;line-height:1;font-family:&quot;LT Saeada&quot;;-inkscape-font-specification:&quot;LT Saeada&quot;;text-align:center;text-decoration-color:#000;letter-spacing:.822609px;word-spacing:-.00822609px;text-anchor:middle;white-space:pre;inline-size:358.592;fill:#646464;fill-opacity:1;stroke-width:1.55454;stroke-linecap:round;stroke-linejoin:round;-inkscape-stroke:none" transform="translate(-82.852 798.336) scale(.80136)"><tspan id="tspan9" x="-695.998" y="2408.189"><tspan id="tspan7" dx="0 0 0 0 0 0.0082250768 -0.0082231164 0 0 0 0 0.0082250768 -0.0082193017 0 0 0 0 0.0082298452 -0.0082193017 0 0 0.0082288915 -0.0082345605 0 0 0 0 0.0082191164 -0.0082193017" style="font-weight:300;-inkscape-font-specification:&quot;LT Saeada Light&quot;">Lorem ipsum dolor sit amet, consectetur</tspan><tspan id="tspan10" y="2408.189"> </tspan></tspan><tspan id="tspan13" x="-695.998" y="2424.377"><tspan id="tspan11" dx="0 0 0 0 0 0 0 0 0 0 0.0082260305 -0.0082269311 0 0 0 0 0.0082267458 -0.0082269311 0 0 0.0082298452 -0.0082345605 0 0.0082212621 -0.0082193017 0 0 0 0 0 0 0.0082298452 -0.0082345605" style="font-weight:300;-inkscape-font-specification:&quot;LT Saeada Light&quot;">adipiscing elit, sed do eiusmod tempor</tspan><tspan id="tspan14" y="2424.377"> </tspan></tspan><tspan id="tspan16" x="-695.998" y="2440.566"><tspan id="tspan15" dx="0 0 0 0 0 0 0 0 0 0 0.0082288915 -0.0082269311 0 0.0082212621 -0.0082269311 0 0 0 0 0 0.0082222158 -0.0082193017 0 0.0082288915 -0.0082193017 0 0 0 0 0 0.0082222158 -0.0082193017" style="font-weight:300;-inkscape-font-specification:&quot;LT Saeada Light&quot;">incididunt ut labore et dolore magna.</tspan></tspan></text><use xlink:href="#rect116" id="use176" x="0" y="0" clip-path="url(#clipPath217)" style="opacity:.756098;filter:url(#filter176)"/><text xml:space="preserve" id="text98-3" x="-695.998" y="2408.189" style="font-size:16.1887px;line-height:1;font-family:&quot;LT Saeada&quot;;-inkscape-font-specification:&quot;LT Saeada&quot;;text-align:center;text-decoration-color:#000;letter-spacing:.822609px;word-spacing:-.00822609px;text-anchor:middle;white-space:pre;inline-size:196.044;fill:#959595;fill-opacity:1;stroke-width:1.55454;stroke-linecap:round;stroke-linejoin:round;-inkscape-stroke:none" transform="translate(-181.671 1168.587) scale(.60924)"><tspan id="tspan18" x="-695.998" y="2408.189"><tspan id="tspan17" dx="0 0 0 0.0082250768 -0.0082250237 0 0 0 0 0 0.0082288915 -0.0082269311" style="font-weight:300;-inkscape-font-specification:&quot;LT Saeada Light&quot;">6th August 2024</tspan></tspan></text><g id="g176" transform="translate(56.114 279.053)"><text xml:space="preserve" id="text176" x="-695.998" y="2408.189" style="font-size:16.1887px;line-height:1;font-family:&quot;LT Saeada&quot;;-inkscape-font-specification:&quot;LT Saeada&quot;;text-align:center;text-decoration-color:#000;letter-spacing:.822609px;word-spacing:-.00822609px;text-anchor:middle;white-space:pre;inline-size:341.91;fill:#5b5b5b;fill-opacity:1;stroke-width:1.55454;stroke-linecap:round;stroke-linejoin:round;-inkscape-stroke:none" transform="translate(-311.516 1171.06) scale(.55236)"><tspan id="tspan20" x="-695.998" y="2408.189"><tspan id="tspan19" dx="0 0 0 0 0.0082279379 -0.008225739">View logo</tspan></tspan></text><path id="path176" d="M-717.745 2503.62h43.103" style="fill:none;fill-opacity:1;stroke:#5b5b5b;stroke-width:.482422;stroke-linecap:round;stroke-linejoin:round;stroke-dasharray:1.92969,1.92969;stroke-dashoffset:0;stroke-opacity:1"/></g><path id="text5" d="M-591.2 3175.52c-.814-1.73-2.341-2.85-4.071-2.85-.51 0-1.018.101-1.527.305-2.34.814-3.664 3.46-2.646 5.598l27.174 62.388c1.018 2.239 3.053 3.46 5.19 3.46 2.138 0 4.275-1.221 5.191-3.46l27.276-62.388c.916-2.138-.407-4.784-2.646-5.598a4.085 4.085 0 0 0-1.527-.305c-1.832 0-3.359 1.12-4.173 2.85l-24.12 56.586zm70.307 65.034a3.649 3.649 0 0 0 3.664 3.664h39.998c2.34 0 4.173-1.832 4.173-4.275 0-2.34-1.832-4.071-4.173-4.071h-34.807v-23.306h32.059c2.544 0 4.07-1.425 4.07-3.97 0-2.646-1.526-3.969-4.07-3.969h-32.06v-23.306h34.808c2.34 0 4.173-1.73 4.173-4.071 0-2.443-1.832-4.275-4.173-4.275h-39.998a3.649 3.649 0 0 0-3.664 3.664zm60.843-32.06c0 21.78 14.859 37.148 36.028 37.148 9.974 0 18.523-3.46 24.731-9.363 3.054-2.442 3.054-6.208 1.018-7.633-.712-.61-1.526-.814-2.34-.814-1.426 0-3.054.814-4.58 2.137-4.682 4.682-11.196 7.531-18.829 7.531-15.979 0-27.174-12.01-27.174-29.005 0-16.997 11.195-29.006 27.174-29.006 7.633 0 14.147 2.85 18.828 7.531 1.527 1.323 3.155 2.137 4.58 2.137.815 0 1.629-.203 2.341-.814 2.036-1.425 2.036-5.19-1.018-7.633-6.208-5.903-14.757-9.363-24.73-9.363-21.17 0-36.03 15.368-36.03 37.147zm122.518-27.173c2.34 0 4.173-1.73 4.173-4.173 0-2.341-1.832-4.173-4.173-4.173h-46.511c-2.24 0-4.173 1.832-4.173 4.173 0 2.34 1.934 4.173 4.173 4.173h18.828v61.574c0 .814.61 1.323 1.323 1.323h6.208c.713 0 1.324-.51 1.324-1.323v-61.574zm46.9 64.423c21.168 0 36.13-15.368 36.13-37.25 0-21.78-14.962-37.147-36.13-37.147-21.17 0-36.03 15.368-36.03 37.148 0 21.881 14.86 37.25 36.03 37.25zm0-8.142c-15.98 0-27.175-12.01-27.175-29.107 0-16.997 11.196-29.006 27.174-29.006 16.08 0 27.276 12.01 27.276 29.006 0 17.098-11.195 29.107-27.276 29.107zm94.427 4.682c.815 1.425 2.24 2.239 3.766 2.239.712 0 1.527-.305 2.34-.713 2.036-1.22 2.85-3.867 1.528-6.004l-13.13-22.798c9.364-3.155 14.147-11.704 14.147-20.355 0-10.788-7.43-21.678-22.39-21.678h-25.037c-2.544 0-4.478 1.934-4.478 4.376v65.544c0 .814.61 1.323 1.323 1.323h6.208c.713 0 1.323-.51 1.323-1.323v-26.564h19.44zm-34.4-60.963h20.355c9.364 0 13.944 6.615 13.944 13.23 0 6.718-4.682 13.333-13.944 13.333h-20.355z" aria-label="VECTOR" style="font-weight:300;font-size:101.775px;line-height:1;font-family:&quot;LT Saeada&quot;;-inkscape-font-specification:&quot;LT Saeada Light&quot;;letter-spacing:5.17159px;word-spacing:-.0517159px;fill:none;fill-opacity:.518453;stroke:#999;stroke-width:.952745;stroke-linecap:round;stroke-linejoin:round"/></g></g></svg>